<svg xmlns="http://www.w3.org/2000/svg" xmlns:xlink="http://www.w3.org/1999/xlink" viewBox="0 0 64.67 56.37"><defs><style>.cls-1{fill:url(#New_Gradient_Swatch_copy_4);}.cls-2{fill:#fff;stroke:#fff;stroke-miterlimit:10;}</style><linearGradient id="New_Gradient_Swatch_copy_4" x1="24.36" y1="1.27" x2="24.36" y2="49.87" gradientUnits="userSpaceOnUse"><stop offset="0" stop-color="#f3dcfb"/><stop offset="1" stop-color="#679fe4"/></linearGradient></defs><title>contacto</title><g id="Layer_2" data-name="Layer 2"><g id="Layer_1-2" data-name="Layer 1"><ellipse class="cls-1" cx="24.36" cy="25.57" rx="24.36" ry="24.3"/><circle class="cls-2" cx="46.89" cy="10.2" r="1.23"/><path class="cls-2" d="M46.89,11.7a1.5,1.5,0,1,1,1.5-1.5A1.5,1.5,0,0,1,46.89,11.7Zm0-2.45a1,1,0,1,0,1,.95A1,1,0,0,0,46.89,9.25Z"/><path class="cls-2" d="M57.25,19.06a10.37,10.37,0,1,1,.17-2.26.34.34,0,0,1,.23-.08l.12,0a10.68,10.68,0,1,0-.18,2.38l-.12,0A.31.31,0,0,1,57.25,19.06Z"/><path class="cls-2" d="M47.07,28.08A11,11,0,1,1,54.7,9.25,10.87,10.87,0,0,1,58,16.73l0,.41L57.68,17a.11.11,0,0,0-.08,0l-.43.38,0-.57A10.1,10.1,0,0,0,47.07,7.06,10.07,10.07,0,1,0,57,19l.09-.48.36.33h.08l.43-.14-.08.45A11,11,0,0,1,47.07,28.08Z"/><path class="cls-2" d="M57.5,18.86h0a.22.22,0,0,1-.17-.26,12.47,12.47,0,0,0,.11-1.48.21.21,0,0,1,.22-.21h0a.22.22,0,0,1,.22.22,12.28,12.28,0,0,1-.12,1.56A.21.21,0,0,1,57.5,18.86Z"/><path class="cls-2" d="M57.5,19.14h-.1a.51.51,0,0,1-.39-.58,11,11,0,0,0,.1-1.43.5.5,0,1,1,1,0A11.33,11.33,0,0,1,58,18.74.5.5,0,0,1,57.5,19.14Z"/><path class="cls-2" d="M47,25.12a.22.22,0,0,1-.22-.22V12.61a.22.22,0,0,1,.22-.22.22.22,0,0,1,.22.22V24.9A.22.22,0,0,1,47,25.12Z"/><path class="cls-2" d="M47,25.39a.49.49,0,0,1-.5-.49V12.61a.5.5,0,0,1,1,0V24.9A.49.49,0,0,1,47,25.39Z"/><path class="cls-2" d="M21.5,42.15a.45.45,0,0,1-.34-.15,60.45,60.45,0,0,1-8.38-12.8A37.64,37.64,0,0,1,9.05,16.74,22.26,22.26,0,0,1,11.68,3.35l0,0a.49.49,0,0,1,.37-.21c.34,0,.69-.06,7.38,6.85,3.24,3.34,6.42,6.73,6.46,6.77a.45.45,0,0,1,0,.62l-3.6,3.59a40.62,40.62,0,0,0,2.14,4.63c1.74,3.19,3.45,5.05,4.95,5.39a.45.45,0,0,1,.34.54.44.44,0,0,1-.54.34c-1.79-.4-3.65-2.37-5.55-5.85a42.68,42.68,0,0,1-2.3-5,.46.46,0,0,1,.11-.47L24.94,17C20.59,12.39,13.87,5.41,12.27,4.17A21.29,21.29,0,0,0,10,16.65a36.79,36.79,0,0,0,3.64,12.16A59.31,59.31,0,0,0,21.84,41.4a.46.46,0,0,1,0,.64A.43.43,0,0,1,21.5,42.15Z"/><path class="cls-2" d="M50.56,55.87A25.38,25.38,0,0,1,48,55.74,37.73,37.73,0,0,1,35.48,52a61.92,61.92,0,0,1-12.84-8.36.46.46,0,0,1,.61-.68,59.77,59.77,0,0,0,12.64,8.23,37.16,37.16,0,0,0,12.18,3.63,21.53,21.53,0,0,0,12.51-2.32c-1.24-1.6-8.25-8.3-12.89-12.64l-3.5,3.48a.44.44,0,0,1-.47.11,42,42,0,0,1-5-2.29c-3.48-1.89-5.46-3.75-5.86-5.53a.45.45,0,0,1,.88-.2c.68,3,7.24,6,10,7.07l3.59-3.59a.45.45,0,0,1,.63,0s3.44,3.2,6.79,6.43c6.93,6.67,6.9,7,6.87,7.37a.47.47,0,0,1-.21.36l0,0A21.74,21.74,0,0,1,50.56,55.87Z"/><path class="cls-2" d="M60.72,47.12A.45.45,0,0,1,60.4,47l-10-9.94a.45.45,0,0,1,0-.64.47.47,0,0,1,.64,0l10,9.94A.45.45,0,0,1,61,47,.42.42,0,0,1,60.72,47.12Z"/><path class="cls-2" d="M24.49,10.8a.44.44,0,0,1-.32-.13l-9.42-9.4a.45.45,0,0,1,0-.64.47.47,0,0,1,.64,0L24.81,10a.47.47,0,0,1,0,.64A.45.45,0,0,1,24.49,10.8Z"/><path class="cls-2" d="M28.65,15a.47.47,0,0,1-.32-.14L25.53,12a.45.45,0,0,1,0-.64.47.47,0,0,1,.64,0L29,14.19a.45.45,0,0,1,0,.63A.47.47,0,0,1,28.65,15Z"/><path class="cls-2" d="M63.71,49.92a.45.45,0,0,1-.32-.13l-2-2a.44.44,0,0,1,0-.63.45.45,0,0,1,.64,0l2,2a.45.45,0,0,1,0,.64A.42.42,0,0,1,63.71,49.92Z"/><path class="cls-2" d="M32.24,34.33a.44.44,0,0,1-.33-.15l-1.47-1.6a.45.45,0,1,1,.67-.61l1.47,1.6a.45.45,0,0,1,0,.64A.47.47,0,0,1,32.24,34.33Z"/></g></g></svg>