<svg xmlns="http://www.w3.org/2000/svg" viewBox="0 0 58.96 61.34"><defs><style>.cls-1{fill:#fff;stroke:#fff;stroke-miterlimit:10;}</style></defs><title>cronómetro</title><g id="Layer_2" data-name="Layer 2"><g id="Layer_1-2" data-name="Layer 1"><path class="cls-1" d="M57,37.16a28,28,0,1,1,.48-6.1,1,1,0,0,1,.94-.15,28.9,28.9,0,1,0-.49,6.43,1,1,0,0,1-.31,0A.88.88,0,0,1,57,37.16Z"/><path class="cls-1" d="M57.68,36.52h-.09a.47.47,0,0,1-.37-.55,30.43,30.43,0,0,0,.29-4,.47.47,0,0,1,.47-.47h0a.48.48,0,0,1,.47.48,31.23,31.23,0,0,1-.3,4.19A.48.48,0,0,1,57.68,36.52Z"/><path class="cls-1" d="M29.38,3.51A.47.47,0,0,1,28.91,3V1a.47.47,0,0,1,.94,0V3A.47.47,0,0,1,29.38,3.51Z"/><path class="cls-1" d="M31.74,1.44H27A.47.47,0,0,1,27,.5h4.72a.47.47,0,1,1,0,.94Z"/><path class="cls-1" d="M30,32.29a1.32,1.32,0,0,1-1-.36c-1.14-1.14.58-4,2.87-6.33a12,12,0,0,1,5.94-3,.49.49,0,0,1,.41.14.48.48,0,0,1,.13.4,11.66,11.66,0,0,1-3,5.92h0C33.57,30.85,31.4,32.29,30,32.29Zm7.28-8.6a10.7,10.7,0,0,0-4.72,2.58c-2.55,2.54-3.23,4.63-2.87,5s2.46-.32,5-2.86A10.67,10.67,0,0,0,37.28,23.69Z"/><path class="cls-1" d="M13.34,8.41A.51.51,0,0,1,13,8.27L11.42,6.69a.47.47,0,0,1,0-.67.47.47,0,0,1,.66,0l1.59,1.59a.45.45,0,0,1,0,.66A.47.47,0,0,1,13.34,8.41Z"/><path class="cls-1" d="M45,8.41a.45.45,0,0,1-.32-.13.46.46,0,0,1,0-.66l1.86-2a.47.47,0,0,1,.69.65l-1.86,2A.49.49,0,0,1,45,8.41Z"/><path class="cls-1" d="M11.3,7A.51.51,0,0,1,11,6.84l-.6-.6a.48.48,0,0,1,0-.67L11,5a.48.48,0,0,1,.67,0l.61.6a.51.51,0,0,1,.13.33.51.51,0,0,1-.13.34l-.61.6A.47.47,0,0,1,11.3,7Z"/><path class="cls-1" d="M47.23,6.77a.45.45,0,0,1-.34-.15l-.65-.69a.47.47,0,0,1,0-.64l.65-.69a.49.49,0,0,1,.69,0l.64.69a.45.45,0,0,1,0,.64l-.64.69A.47.47,0,0,1,47.23,6.77Z"/><path class="cls-1" d="M57.79,32.22H53.45a.47.47,0,0,1,0-.94h4.34a.47.47,0,0,1,0,.94Z"/><path class="cls-1" d="M5.69,32.22H1.35a.47.47,0,1,1,0-.94H5.69a.47.47,0,1,1,0,.94Z"/><path class="cls-1" d="M29.48,8.41A.48.48,0,0,1,29,7.94V4.08a.48.48,0,0,1,.48-.47.47.47,0,0,1,.47.47V7.94A.47.47,0,0,1,29.48,8.41Z"/><path class="cls-1" d="M29.48,11a.48.48,0,0,1-.48-.47V9.35a.48.48,0,0,1,.48-.47.47.47,0,0,1,.47.47v1.13A.47.47,0,0,1,29.48,11Z"/><path class="cls-1" d="M29.48,60.65a.48.48,0,0,1-.48-.47V56.32a.48.48,0,0,1,.48-.47.47.47,0,0,1,.47.47v3.86A.47.47,0,0,1,29.48,60.65Z"/><path class="cls-1" d="M29.48,55.38a.48.48,0,0,1-.48-.47V53.78a.48.48,0,0,1,.48-.47.47.47,0,0,1,.47.47v1.13A.47.47,0,0,1,29.48,55.38Z"/><circle class="cls-1" cx="29.29" cy="31.94" r="1.32"/></g></g></svg>