<svg xmlns="http://www.w3.org/2000/svg" viewBox="0 0 63.91 58.5"><defs><style>.cls-1{fill:#fff;stroke:#fff;stroke-miterlimit:10;}</style></defs><title>inicio</title><g id="Layer_2" data-name="Layer 2"><g id="Layer_1-2" data-name="Layer 1"><path class="cls-1" d="M1,58a.47.47,0,0,1-.51-.42V19.11a.41.41,0,0,1,.21-.34L30.58.58a.62.62,0,0,1,.59,0L63.18,18a.38.38,0,0,1,.14.58.56.56,0,0,1-.7.12L30.9,1.43,1.51,19.32V57.58A.46.46,0,0,1,1,58Z"/><path class="cls-1" d="M40.73,57.91a.47.47,0,0,1-.51-.42V38.86c0-3.71-3.78-6.73-8.43-6.73S23.21,35.2,23.21,39V57.49a.47.47,0,0,1-.51.42H7a.43.43,0,1,1,0-.84H22.2V39c0-4.23,4.3-7.67,9.59-7.67s9.44,3.39,9.44,7.56V57.49A.46.46,0,0,1,40.73,57.91Z"/><path class="cls-1" d="M62.78,57.91H44.64a.43.43,0,1,1,0-.84H62.27V25.84a.52.52,0,0,1,1,0V57.49A.47.47,0,0,1,62.78,57.91Z"/><path class="cls-1" d="M62.78,24.46a.47.47,0,0,1-.51-.42V20.47a.52.52,0,0,1,1,0V24A.47.47,0,0,1,62.78,24.46Z"/><path class="cls-1" d="M5.37,57.92H2.94a.43.43,0,1,1,0-.84H5.37a.43.43,0,1,1,0,.84Z"/></g></g></svg>