<svg xmlns="http://www.w3.org/2000/svg" xmlns:xlink="http://www.w3.org/1999/xlink" viewBox="0 0 64.67 59.21"><defs><style>.cls-1{fill:url(#New_Gradient_Swatch_copy_4);}.cls-2{fill:#fff;stroke:#fff;stroke-miterlimit:10;}</style><linearGradient id="New_Gradient_Swatch_copy_4" x1="22.53" y1="6.73" x2="22.53" y2="51.68" gradientUnits="userSpaceOnUse"><stop offset="0" stop-color="#f3dcfb"/><stop offset="1" stop-color="#679fe4"/></linearGradient></defs><title>musica</title><g id="Layer_2" data-name="Layer 2"><g id="Layer_1-2" data-name="Layer 1"><ellipse class="cls-1" cx="22.53" cy="29.2" rx="22.53" ry="22.48"/><path class="cls-2" d="M63.75,39.1a.42.42,0,0,1-.42-.42V1.5L25.52,14.29V25.78l34.39-10a.41.41,0,0,1,.52.28.41.41,0,0,1-.28.52L25.22,26.74a.41.41,0,0,1-.37-.07.43.43,0,0,1-.17-.33V14A.41.41,0,0,1,25,13.6L63.61.52A.43.43,0,0,1,64,.58a.42.42,0,0,1,.18.34V38.68A.42.42,0,0,1,63.75,39.1Z"/><path class="cls-2" d="M25.75,51.45a.42.42,0,0,1-.42-.42V32.15a.42.42,0,0,1,.84,0V51A.42.42,0,0,1,25.75,51.45Z"/><path class="cls-2" d="M25.75,30.2a.42.42,0,0,1-.42-.42V28.34a.42.42,0,0,1,.84,0v1.44A.42.42,0,0,1,25.75,30.2Z"/><path class="cls-2" d="M18,58.71c-4.49,0-8.15-3.12-8.15-7s3.66-7,8.15-7,8.15,3.12,8.15,7S22.51,58.71,18,58.71Zm0-13.07c-4,0-7.31,2.74-7.31,6.12S14,57.88,18,57.88s7.31-2.75,7.31-6.12S22.05,45.64,18,45.64Z"/><path class="cls-2" d="M56,46.5c-4.49,0-8.15-3.12-8.15-7s3.66-6.95,8.15-6.95,8.15,3.12,8.15,6.95S60.47,46.5,56,46.5Zm0-13.07c-4,0-7.31,2.74-7.31,6.11S52,45.66,56,45.66s7.31-2.74,7.31-6.12S60,33.43,56,33.43Z"/><path class="cls-2" d="M61.32,16.21a.42.42,0,0,1-.4-.28.41.41,0,0,1,.26-.53l1-.34a.42.42,0,0,1,.53.26.42.42,0,0,1-.27.53l-1,.34A.32.32,0,0,1,61.32,16.21Z"/></g></g></svg>