<svg xmlns="http://www.w3.org/2000/svg" viewBox="0 0 55.45 59.38"><defs><style>.cls-1{fill:#fff;stroke:#fff;stroke-miterlimit:10;}</style></defs><title>música</title><g id="Layer_2" data-name="Layer 2"><g id="Layer_1-2" data-name="Layer 1"><path class="cls-1" d="M54.53,39.21a.41.41,0,0,1-.42-.41V1.5L16.2,14.33V25.85l34.49-10a.43.43,0,0,1,.52.29.42.42,0,0,1-.29.52l-35,10.2a.45.45,0,0,1-.37-.07.44.44,0,0,1-.16-.34V14a.42.42,0,0,1,.28-.4L54.4.52a.43.43,0,0,1,.38.06A.41.41,0,0,1,55,.92V38.8A.41.41,0,0,1,54.53,39.21Z"/><path class="cls-1" d="M16.42,51.6a.42.42,0,0,1-.42-.42V32.24a.42.42,0,1,1,.84,0V51.18A.42.42,0,0,1,16.42,51.6Z"/><path class="cls-1" d="M16.42,30.29a.42.42,0,0,1-.42-.42V28.42a.42.42,0,1,1,.84,0v1.45A.42.42,0,0,1,16.42,30.29Z"/><path class="cls-1" d="M8.67,58.88c-4.5,0-8.17-3.13-8.17-7s3.67-7,8.17-7,8.17,3.13,8.17,7S13.18,58.88,8.67,58.88Zm0-13.11c-4,0-7.33,2.75-7.33,6.14S4.63,58,8.67,58,16,55.29,16,51.91,12.71,45.77,8.67,45.77Z"/><path class="cls-1" d="M46.74,46.63c-4.5,0-8.17-3.13-8.17-7s3.67-7,8.17-7,8.17,3.13,8.17,7S51.25,46.63,46.74,46.63Zm0-13.11c-4,0-7.33,2.75-7.33,6.14s3.29,6.13,7.33,6.13,7.33-2.75,7.33-6.13S50.78,33.52,46.74,33.52Z"/><path class="cls-1" d="M52.09,16.26a.42.42,0,0,1-.13-.82l1-.34a.42.42,0,0,1,.27.8l-1,.34Z"/></g></g></svg>