<svg xmlns="http://www.w3.org/2000/svg" viewBox="0 0 31.47 42"><defs><style>.cls-1{fill:#fff;}</style></defs><title>iconopausa</title><g id="Layer_2" data-name="Layer 2"><g id="Layer_1-2" data-name="Layer 1"><path class="cls-1" d="M7,42H7l-5.9-.12c-.59,0-1-.28-1-.6V.6C0,.27.49,0,1.09,0H7c.61,0,1.1.27,1.1.6V41.4a.54.54,0,0,1-.34.43A1.64,1.64,0,0,1,7,42Zm-4.8-1.29,3.71.07V1.2H2.19Z"/><path class="cls-1" d="M30.37,42h0l-5.9-.12c-.58,0-1.05-.28-1.05-.6V.6c0-.33.49-.6,1.09-.6h5.9c.61,0,1.1.27,1.1.6V41.4a.52.52,0,0,1-.34.43A1.61,1.61,0,0,1,30.37,42Zm-4.8-1.29,3.71.07V1.2H25.57Z"/></g></g></svg>