<svg xmlns="http://www.w3.org/2000/svg" viewBox="0 0 61.1 61.23"><defs><style>.cls-1{fill:#fff;stroke:#fff;stroke-miterlimit:10;}</style></defs><title>contacto</title><g id="Layer_2" data-name="Layer 2"><g id="Layer_1-2" data-name="Layer 1"><circle class="cls-1" cx="41.81" cy="11.06" r="1.34"/><path class="cls-1" d="M41.81,12.68a1.63,1.63,0,1,1,1.63-1.62A1.64,1.64,0,0,1,41.81,12.68Zm0-2.66a1,1,0,1,0,1,1A1,1,0,0,0,41.81,10Z"/><path class="cls-1" d="M53.07,20.68a11.21,11.21,0,1,1,.2-2.45.33.33,0,0,1,.24-.08.27.27,0,0,1,.13,0,11.6,11.6,0,1,0-.19,2.58.27.27,0,0,1-.13,0A.35.35,0,0,1,53.07,20.68Z"/><path class="cls-1" d="M42,30.5A11.9,11.9,0,1,1,53.94,18.16v.44l-.41-.15h-.08l-.47.41,0-.62a11,11,0,1,0-.19,2.39l.1-.52.39.36h.08l.48-.15-.09.49A12,12,0,0,1,42,30.5Z"/><path class="cls-1" d="M53.34,20.48h0a.23.23,0,0,1-.19-.28,12.6,12.6,0,0,0,.11-1.61.23.23,0,0,1,.24-.23h0a.23.23,0,0,1,.24.24,12.43,12.43,0,0,1-.12,1.69A.24.24,0,0,1,53.34,20.48Z"/><path class="cls-1" d="M53.34,20.77h-.1a.54.54,0,0,1-.34-.23.52.52,0,0,1-.08-.4,11.48,11.48,0,0,0,.11-1.55.53.53,0,0,1,.53-.53.54.54,0,0,1,.54.54,12.2,12.2,0,0,1-.13,1.75A.54.54,0,0,1,53.34,20.77Z"/><path class="cls-1" d="M41.87,27.28a.23.23,0,0,1-.24-.24V13.67a.24.24,0,0,1,.24-.24.24.24,0,0,1,.24.24V27A.24.24,0,0,1,41.87,27.28Z"/><path class="cls-1" d="M41.87,27.58a.54.54,0,0,1-.54-.54V13.67a.54.54,0,0,1,1.07,0V27A.54.54,0,0,1,41.87,27.58Z"/><path class="cls-1" d="M14.19,45.81a.52.52,0,0,1-.37-.16A66.1,66.1,0,0,1,4.7,31.72,40.93,40.93,0,0,1,.64,18.17,24.14,24.14,0,0,1,3.51,3.6s0,0,0,0a.49.49,0,0,1,.4-.23c.37,0,.75-.06,8,7.45,3.52,3.63,7,7.32,7,7.36a.49.49,0,0,1,0,.68l-3.91,3.91a44.69,44.69,0,0,0,2.32,5c1.9,3.47,3.76,5.5,5.39,5.86a.49.49,0,1,1-.22,1c-1.94-.44-4-2.58-6-6.36A44.54,44.54,0,0,1,14,22.78a.48.48,0,0,1,.11-.51l3.8-3.79c-4.73-5-12-12.64-13.79-14A23.38,23.38,0,0,0,1.62,18.07a40,40,0,0,0,4,13.23,65,65,0,0,0,9,13.69.49.49,0,0,1,0,.69A.5.5,0,0,1,14.19,45.81Z"/><path class="cls-1" d="M45.8,60.73A26.84,26.84,0,0,1,43,60.59a41.36,41.36,0,0,1-13.6-4,66.28,66.28,0,0,1-14-9.09.5.5,0,1,1,.66-.74,65.2,65.2,0,0,0,13.75,9,40.39,40.39,0,0,0,13.25,3.95A23.55,23.55,0,0,0,56.7,57.1c-1.36-1.74-9-9-14-13.76l-3.8,3.8a.5.5,0,0,1-.52.11,45.92,45.92,0,0,1-5.46-2.48c-3.79-2.06-5.94-4.09-6.38-6a.49.49,0,0,1,.37-.58.48.48,0,0,1,.59.37c.74,3.22,7.87,6.54,10.93,7.69l3.91-3.91a.51.51,0,0,1,.69,0s3.73,3.49,7.38,7c7.54,7.26,7.5,7.64,7.47,8a.49.49,0,0,1-.23.4l0,0A23.66,23.66,0,0,1,45.8,60.73Z"/><path class="cls-1" d="M56.86,51.22a.47.47,0,0,1-.35-.15L45.67,40.26a.49.49,0,0,1,.69-.69L57.2,50.38a.47.47,0,0,1,0,.69A.46.46,0,0,1,56.86,51.22Z"/><path class="cls-1" d="M17.44,11.7a.47.47,0,0,1-.35-.14L6.84,1.34a.49.49,0,1,1,.7-.7L17.79,10.87a.49.49,0,0,1-.35.83Z"/><path class="cls-1" d="M22,16.23a.49.49,0,0,1-.35-.15l-3.05-3a.49.49,0,1,1,.69-.69l3.06,3.05a.5.5,0,0,1-.35.84Z"/><path class="cls-1" d="M60.11,54.26a.5.5,0,0,1-.35-.14L57.59,52a.49.49,0,1,1,.7-.7l2.17,2.16a.5.5,0,0,1,0,.7A.54.54,0,0,1,60.11,54.26Z"/><path class="cls-1" d="M25.88,37.29a.51.51,0,0,1-.37-.15l-1.6-1.75a.49.49,0,0,1,0-.69.5.5,0,0,1,.7,0l1.6,1.74a.5.5,0,0,1,0,.7A.54.54,0,0,1,25.88,37.29Z"/></g></g></svg>