<svg xmlns="http://www.w3.org/2000/svg" xmlns:xlink="http://www.w3.org/1999/xlink" viewBox="0 0 64.59 56.76"><defs><style>.cls-1{fill:url(#New_Gradient_Swatch_copy_4);}.cls-2{fill:#fff;stroke:#fff;stroke-miterlimit:10;}</style><linearGradient id="New_Gradient_Swatch_copy_4" x1="23.42" y1="6.46" x2="23.42" y2="53.25" gradientUnits="userSpaceOnUse"><stop offset="0" stop-color="#f3dcfb"/><stop offset="1" stop-color="#679fe4"/></linearGradient></defs><title>cronometro</title><g id="Layer_2" data-name="Layer 2"><g id="Layer_1-2" data-name="Layer 1"><ellipse class="cls-1" cx="23.42" cy="29.85" rx="23.42" ry="23.39"/><path class="cls-2" d="M62.76,34.38a25.84,25.84,0,1,1,.44-5.64.8.8,0,0,1,.55-.2.75.75,0,0,1,.31.06,26.69,26.69,0,1,0-.45,5.94.85.85,0,0,1-.29,0A.81.81,0,0,1,62.76,34.38Z"/><path class="cls-2" d="M63.38,33.78h-.09a.44.44,0,0,1-.34-.52,27.62,27.62,0,0,0,.26-3.71.44.44,0,0,1,.44-.43h0a.43.43,0,0,1,.43.44,27.22,27.22,0,0,1-.28,3.87A.43.43,0,0,1,63.38,33.78Z"/><path class="cls-2" d="M37.26,3.28a.44.44,0,0,1-.44-.43V1a.44.44,0,0,1,.44-.44.44.44,0,0,1,.43.44V2.85A.43.43,0,0,1,37.26,3.28Z"/><path class="cls-2" d="M39.43,1.37H35.08a.44.44,0,1,1,0-.87h4.35a.43.43,0,0,1,.44.43A.43.43,0,0,1,39.43,1.37Z"/><path class="cls-2" d="M37.82,29.87a1.18,1.18,0,0,1-.89-.33c-1.06-1.05.53-3.74,2.65-5.85a11,11,0,0,1,5.47-2.77.45.45,0,0,1,.38.13.42.42,0,0,1,.12.37,10.87,10.87,0,0,1-2.77,5.47h0C41.13,28.54,39.12,29.87,37.82,29.87Zm6.73-7.94a10,10,0,0,0-4.36,2.38c-2.35,2.35-3,4.28-2.65,4.61s2.27-.29,4.62-2.64A9.89,9.89,0,0,0,44.55,21.93Z"/><path class="cls-2" d="M22.45,7.81a.43.43,0,0,1-.31-.13L20.68,6.22a.44.44,0,0,1,.62-.62l1.46,1.47a.43.43,0,0,1,0,.61A.42.42,0,0,1,22.45,7.81Z"/><path class="cls-2" d="M51.71,7.81a.44.44,0,0,1-.32-.73l1.72-1.84a.44.44,0,1,1,.64.6L52,7.67A.45.45,0,0,1,51.71,7.81Z"/><path class="cls-2" d="M20.57,6.48a.47.47,0,0,1-.31-.12L19.7,5.8a.43.43,0,0,1,0-.61l.56-.56a.46.46,0,0,1,.62,0l.56.56a.42.42,0,0,1,.12.3.4.4,0,0,1-.13.31l-.55.56A.47.47,0,0,1,20.57,6.48Z"/><path class="cls-2" d="M53.73,6.3a.45.45,0,0,1-.32-.14l-.59-.64a.42.42,0,0,1,0-.59l.59-.64a.47.47,0,0,1,.64,0l.6.64a.44.44,0,0,1,0,.59l-.6.64A.43.43,0,0,1,53.73,6.3Z"/><path class="cls-2" d="M63.47,29.81h-4a.44.44,0,0,1-.44-.43.44.44,0,0,1,.44-.44h4a.44.44,0,0,1,.44.44A.44.44,0,0,1,63.47,29.81Z"/><path class="cls-2" d="M15.4,29.81h-4a.44.44,0,0,1-.44-.43.44.44,0,0,1,.44-.44h4a.44.44,0,0,1,.43.44A.43.43,0,0,1,15.4,29.81Z"/><path class="cls-2" d="M37.34,7.81a.44.44,0,0,1-.43-.44V3.81a.44.44,0,1,1,.87,0V7.37A.44.44,0,0,1,37.34,7.81Z"/><path class="cls-2" d="M37.34,10.16a.44.44,0,0,1-.43-.44v-1a.44.44,0,1,1,.87,0v1A.44.44,0,0,1,37.34,10.16Z"/><path class="cls-2" d="M37.34,56.08a.43.43,0,0,1-.43-.43V52.08a.44.44,0,0,1,.87,0v3.57A.43.43,0,0,1,37.34,56.08Z"/><path class="cls-2" d="M37.34,51.21a.43.43,0,0,1-.43-.43V49.73a.44.44,0,0,1,.87,0v1.05A.43.43,0,0,1,37.34,51.21Z"/><circle class="cls-2" cx="37.17" cy="29.55" r="1.22"/></g></g></svg>