<svg xmlns="http://www.w3.org/2000/svg" viewBox="0 0 53.3 53.55"><defs><style>.cls-1{fill:#fff;}</style></defs><title>iconocontacto</title><g id="Layer_2" data-name="Layer 2"><g id="Layer_1-2" data-name="Layer 1"><circle class="cls-1" cx="36.63" cy="9.38" r="1.19"/><path class="cls-1" d="M36.63,10.83a1.45,1.45,0,1,1,1.45-1.45A1.45,1.45,0,0,1,36.63,10.83Zm0-2.37a.93.93,0,0,0,0,1.85.93.93,0,1,0,0-1.85Z"/><path class="cls-1" d="M46.62,18a10,10,0,1,1,.17-2.19.36.36,0,0,1,.22-.07l.12,0A10.35,10.35,0,1,0,47,18l-.11,0A.39.39,0,0,1,46.62,18Z"/><path class="cls-1" d="M36.8,26.68a10.6,10.6,0,0,1,0-21.2A10.63,10.63,0,0,1,47.39,15.7v.39L47,16A.11.11,0,0,0,47,16l-.41.36,0-.55a9.75,9.75,0,1,0-.17,2.13l.09-.46.35.31h.07l.42-.14-.08.44A10.61,10.61,0,0,1,36.8,26.68Z"/><path class="cls-1" d="M46.86,17.76h0a.22.22,0,0,1-.17-.25,11.08,11.08,0,0,0,.1-1.43.22.22,0,0,1,.22-.21h0a.21.21,0,0,1,.21.21,10.92,10.92,0,0,1-.11,1.51A.21.21,0,0,1,46.86,17.76Z"/><path class="cls-1" d="M46.86,18h-.09a.42.42,0,0,1-.3-.2.44.44,0,0,1-.07-.35,11.62,11.62,0,0,0,.09-1.38.48.48,0,1,1,.95,0,11.7,11.7,0,0,1-.11,1.56A.48.48,0,0,1,46.86,18Z"/><path class="cls-1" d="M36.68,23.81a.21.21,0,0,1-.21-.21V11.71a.21.21,0,0,1,.21-.21.21.21,0,0,1,.22.21V23.6A.21.21,0,0,1,36.68,23.81Z"/><path class="cls-1" d="M36.68,24.07a.47.47,0,0,1-.47-.47V11.71a.48.48,0,0,1,.95,0V23.6A.47.47,0,0,1,36.68,24.07Z"/><path class="cls-1" d="M12.14,40.29a.44.44,0,0,1-.33-.15A58.94,58.94,0,0,1,3.72,27.76a36.47,36.47,0,0,1-3.59-12A21.44,21.44,0,0,1,2.67,2.76v0A.47.47,0,0,1,3,2.52c.33,0,.67,0,7.12,6.63,3.13,3.23,6.2,6.51,6.23,6.54a.45.45,0,0,1,0,.61l-3.47,3.47A40.26,40.26,0,0,0,15,24.25c1.68,3.08,3.33,4.88,4.78,5.21a.44.44,0,0,1,.33.52.43.43,0,0,1-.52.33C17.83,29.92,16,28,14.2,24.66A39,39,0,0,1,12,19.81a.44.44,0,0,1,.1-.46L15.46,16C11.26,11.5,4.78,4.75,3.23,3.55A20.74,20.74,0,0,0,1,15.62,35.46,35.46,0,0,0,4.51,27.38a58.22,58.22,0,0,0,8,12.18.43.43,0,0,1,0,.61A.42.42,0,0,1,12.14,40.29Z"/><path class="cls-1" d="M40.17,53.55q-1.23,0-2.49-.12a36.32,36.32,0,0,1-12.06-3.6,58.68,58.68,0,0,1-12.38-8.08.44.44,0,0,1,0-.62.43.43,0,0,1,.61,0A58.25,58.25,0,0,0,26,49.05a35.48,35.48,0,0,0,11.75,3.51,20.82,20.82,0,0,0,12.07-2.24c-1.2-1.54-8-8-12.44-12.23L34,41.47a.44.44,0,0,1-.46.1,40.81,40.81,0,0,1-4.85-2.21c-3.36-1.83-5.26-3.64-5.65-5.36a.43.43,0,0,1,.33-.52.44.44,0,0,1,.52.33c.65,2.87,7,5.81,9.69,6.84l3.47-3.47a.44.44,0,0,1,.61,0s3.31,3.1,6.54,6.22c6.69,6.45,6.66,6.79,6.63,7.12a.47.47,0,0,1-.21.36h0A21,21,0,0,1,40.17,53.55Z"/><path class="cls-1" d="M50,45.09a.4.4,0,0,1-.31-.13l-9.62-9.61a.44.44,0,0,1,.62-.62l9.61,9.62a.41.41,0,0,1,0,.61A.39.39,0,0,1,50,45.09Z"/><path class="cls-1" d="M15,10a.43.43,0,0,1-.31-.13L5.62.75A.44.44,0,1,1,6.24.13l9.09,9.09A.44.44,0,0,1,15,10Z"/><path class="cls-1" d="M19,14a.43.43,0,0,1-.31-.13L16,11.14a.43.43,0,0,1,0-.61.44.44,0,0,1,.62,0l2.71,2.71A.44.44,0,0,1,19,14Z"/><path class="cls-1" d="M52.86,47.8a.43.43,0,0,1-.31-.13l-1.92-1.92a.44.44,0,1,1,.62-.62l1.92,1.93a.44.44,0,0,1-.31.74Z"/><path class="cls-1" d="M22.5,32.71a.41.41,0,0,1-.32-.14L20.76,31a.43.43,0,0,1,0-.61.44.44,0,0,1,.62,0L22.83,32a.44.44,0,0,1,0,.62A.43.43,0,0,1,22.5,32.71Z"/></g></g></svg>