<svg xmlns="http://www.w3.org/2000/svg" viewBox="0 0 53.28 53.16"><defs><style>.cls-1{fill:#fff;}</style></defs><title>icono info</title><g id="Layer_2" data-name="Layer 2"><g id="Layer_1-2" data-name="Layer 1"><circle class="cls-1" cx="26.1" cy="9.36" r="3.05"/><path class="cls-1" d="M51.85,31.32a25.69,25.69,0,1,1,.43-5.61.8.8,0,0,1,.55-.2.78.78,0,0,1,.31.06,26.55,26.55,0,1,0-.43,5.91.92.92,0,0,1-.29,0A.81.81,0,0,1,51.85,31.32Z"/><path class="cls-1" d="M52.47,30.84h-.11a.55.55,0,0,1-.43-.64,28.29,28.29,0,0,0,.25-3.68.55.55,0,0,1,.55-.54h0a.55.55,0,0,1,.55.55A29,29,0,0,1,53,30.4.54.54,0,0,1,52.47,30.84Z"/><path class="cls-1" d="M26.33,46.47a.55.55,0,0,1-.55-.54l-.07-30.58a.53.53,0,0,1,.54-.55.55.55,0,0,1,.55.54l.07,30.59A.54.54,0,0,1,26.33,46.47Z"/></g></g></svg>