<svg xmlns="http://www.w3.org/2000/svg" xmlns:xlink="http://www.w3.org/1999/xlink" viewBox="0 0 769 525.47"><defs><style>.cls-1{opacity:0.76;fill:url(#linear-gradient);}.cls-2{opacity:0.82;fill:url(#linear-gradient-2);}.cls-3{opacity:0.69;fill:url(#New_Gradient_Swatch_copy_4);}</style><linearGradient id="linear-gradient" x1="769.26" y1="262.88" x2="0.26" y2="262.88" gradientTransform="translate(-0.26 0.1)" gradientUnits="userSpaceOnUse"><stop offset="0" stop-color="#eddffc"/><stop offset="1" stop-color="#ce9ff2"/></linearGradient><linearGradient id="linear-gradient-2" x1="6412.98" y1="-4219.24" x2="6857.35" y2="-3774.87" gradientTransform="matrix(-0.95, 0, 0, 0.67, 6829.62, 2790.22)" gradientUnits="userSpaceOnUse"><stop offset="0" stop-color="#f9c1eb"/><stop offset="1" stop-color="#a991d3"/></linearGradient><linearGradient id="New_Gradient_Swatch_copy_4" x1="0.01" y1="195.17" x2="768.01" y2="195.17" gradientUnits="userSpaceOnUse"><stop offset="0" stop-color="#f3dcfb"/><stop offset="1" stop-color="#679fe4"/></linearGradient></defs><title>nubes </title><g id="Layer_2" data-name="Layer 2"><g id="Layer_1-2" data-name="Layer 1"><path class="cls-1" d="M0,.48,1.09,485.83c68,33.21,157.58,58.95,245.56,20.22,129.44-57,152.76-208.32,299.18-349.2A627.26,627.26,0,0,1,763.37,19.76c8.68-3.24,6.84-19.3-2.21-19.3Z"/><path class="cls-2" d="M767.73,0l-.5,405.85c-64.15,27.85-148.72,49.49-231.84,17.21-122.28-47.49-144.46-174-282.86-291.63C199.37,86.25,132.36,45.19,47,17.06,38.78,14.36,40.5.93,49,.92Z"/><path class="cls-3" d="M0,.47l1.07,360c67.89,24.63,157.37,43.72,245.25,15C375.6,333.21,398.89,221,545.12,116.47c56.17-40.14,127-76.64,217.27-101.69,8.66-2.4,6.83-14.31-2.21-14.31Z"/></g></g></svg>