<svg xmlns="http://www.w3.org/2000/svg" xmlns:xlink="http://www.w3.org/1999/xlink" viewBox="0 0 768 245.69"><defs><style>.cls-1{opacity:0.82;fill:url(#linear-gradient);}.cls-2{opacity:0.76;fill:url(#linear-gradient-2);}.cls-3{opacity:0.69;fill:url(#New_Gradient_Swatch_copy_4);}</style><linearGradient id="linear-gradient" x1="5854" y1="123.34" x2="6622" y2="123.34" gradientTransform="matrix(-1, 0, 0, 1, 6622, 0)" gradientUnits="userSpaceOnUse"><stop offset="0" stop-color="#f9c1eb"/><stop offset="1" stop-color="#a991d3"/></linearGradient><linearGradient id="linear-gradient-2" y1="104.34" x2="768" y2="104.34" gradientUnits="userSpaceOnUse"><stop offset="0" stop-color="#eddffc"/><stop offset="1" stop-color="#ce9ff2"/></linearGradient><linearGradient id="New_Gradient_Swatch_copy_4" y1="77.34" x2="768" y2="77.34" gradientUnits="userSpaceOnUse"><stop offset="0" stop-color="#f3dcfb"/><stop offset="1" stop-color="#679fe4"/></linearGradient></defs><title>nubes</title><g id="Layer_2" data-name="Layer 2"><g id="Layer_1-2" data-name="Layer 1"><path class="cls-1" d="M768,1V143.54c0,19.86-22.3,31.62-38.63,20.32-42.17-29.17-97-55-160.37-53.72C416.6,113.2,344.44,273.57,216,241.43,174.54,231.06,117.57,198.3,55,95.91L0,1Z"/><path class="cls-2" d="M0,1V115.31a26.3,26.3,0,0,0,39.51,22.75C81.56,113.63,136,92.13,199,93.19,351.4,95.78,423.56,231.24,552,204.1c41.46-8.77,98.43-36.44,161-122.93L768,1Z"/><path class="cls-3" d="M0,0V78.71A26.93,26.93,0,0,0,37.85,103.3C80.12,84.72,135.2,68.19,199,69c152.4,1.93,224.56,103.31,353,83,41.46-6.56,98.43-27.27,161-92L768,0Z"/></g></g></svg>