<svg xmlns="http://www.w3.org/2000/svg" viewBox="0 0 36.5 71.6"><defs><style>.cls-1{fill:#363553;stroke:#363553;stroke-miterlimit:10;stroke-width:2px;}</style></defs><title>regresar</title><g id="Layer_2" data-name="Layer 2"><g id="Layer_1-2" data-name="Layer 1"><path class="cls-1" d="M5,39.62a.51.51,0,0,1,.36.15l30,30a.51.51,0,0,1,0,.72.51.51,0,0,1-.71,0l-30-30a.5.5,0,0,1,0-.71A.49.49,0,0,1,5,39.62Z"/><path class="cls-1" d="M35,1a.49.49,0,0,1,.35.15.5.5,0,0,1,0,.71L2.26,35a.5.5,0,0,1-.71-.71L34.64,1.15A.51.51,0,0,1,35,1Z"/><path class="cls-1" d="M1.5,36.1a.51.51,0,0,1,.36.15l2.31,2.31a.51.51,0,0,1,0,.72.51.51,0,0,1-.71,0L1.15,37a.5.5,0,0,1,0-.71A.49.49,0,0,1,1.5,36.1Z"/></g></g></svg>