<svg xmlns="http://www.w3.org/2000/svg" xmlns:xlink="http://www.w3.org/1999/xlink" viewBox="0 0 107.71 107.72"><defs><style>.cls-1,.cls-5,.cls-6{fill:#fff;}.cls-2{fill:url(#New_Gradient_Swatch_copy_5);}.cls-3{fill:#f2eded;}.cls-4{fill:#ac4d17;}.cls-5{opacity:0.55;}.cls-6{opacity:0.9;}.cls-7{fill:#5b0013;}.cls-8{fill:#e0003d;}.cls-9{fill:url(#linear-gradient);}.cls-10{fill:url(#linear-gradient-2);}.cls-11{fill:url(#New_Gradient_Swatch_copy_2);}.cls-12{fill:url(#New_Gradient_Swatch_copy_2-2);}</style><linearGradient id="New_Gradient_Swatch_copy_5" x1="53.86" x2="53.86" y2="107.72" gradientUnits="userSpaceOnUse"><stop offset="0" stop-color="#65799b"/><stop offset="1" stop-color="#5e2563"/></linearGradient><linearGradient id="linear-gradient" x1="19.72" y1="26.77" x2="45.14" y2="41.45" gradientUnits="userSpaceOnUse"><stop offset="0" stop-color="#363553"/><stop offset="0.83" stop-color="#5e2563"/></linearGradient><linearGradient id="linear-gradient-2" x1="88.1" y1="25.9" x2="70.92" y2="43.09" xlink:href="#linear-gradient"/><linearGradient id="New_Gradient_Swatch_copy_2" x1="11.68" y1="50.2" x2="11.68" y2="41.72" gradientUnits="userSpaceOnUse"><stop offset="0" stop-color="#8e6dff"/><stop offset="1" stop-color="#19e7de"/></linearGradient><linearGradient id="New_Gradient_Swatch_copy_2-2" x1="97.8" y1="64.77" x2="97.8" y2="56.3" xlink:href="#New_Gradient_Swatch_copy_2"/></defs><title>miedo</title><g id="Layer_2" data-name="Layer 2"><g id="Layer_1-2" data-name="Layer 1"><path class="cls-1" d="M76.15,93.14A6.71,6.71,0,0,1,69.73,98H42a6.7,6.7,0,0,1-6.42-4.86Z"/><circle class="cls-2" cx="53.86" cy="53.86" r="53.86"/><rect class="cls-1" x="25.79" y="37.77" width="19.61" height="22.94" rx="9.81" ry="9.81" transform="translate(-0.13 0.09) rotate(-0.15)"/><path class="cls-3" d="M35.57,37.58h0c-5.39,0-9.79,4.74-9.78,10.51v.59c0-5.76,4.39-10.49,9.78-10.5h0c5.4,0,9.82,4.69,9.84,10.45V48C45.39,42.27,41,37.57,35.57,37.58Z"/><path class="cls-4" d="M35.62,55.79h0c-3.56,0-6.49-2.53-6.49-5.64V47.91c0-3.12,2.9-5.67,6.46-5.68h0c3.56,0,6.49,2.53,6.49,5.64v2.25C42.09,53.23,39.18,55.79,35.62,55.79Z"/><ellipse cx="35.6" cy="49.05" rx="2.96" ry="3.16" transform="translate(-0.13 0.09) rotate(-0.15)"/><ellipse class="cls-5" cx="37.63" cy="46.83" rx="1.11" ry="1.19" transform="translate(-0.12 0.1) rotate(-0.15)"/><ellipse class="cls-6" cx="38.56" cy="48.31" rx="0.35" ry="0.37" transform="matrix(1, 0, 0, 1, -0.12, 0.1)"/><rect class="cls-1" x="65.29" y="37.89" width="19.61" height="22.94" rx="9.81" ry="9.81" transform="translate(-0.2 0.31) rotate(-0.24)"/><path class="cls-3" d="M75.05,37.7h0c-5.39,0-9.79,4.76-9.76,10.53v.59c0-5.76,4.37-10.5,9.76-10.52h0c5.4,0,9.83,4.68,9.85,10.44v-.59C84.88,42.38,80.44,37.68,75.05,37.7Z"/><path class="cls-4" d="M75.13,55.92h0c-3.57,0-6.49-2.52-6.5-5.64V48c0-3.11,2.89-5.67,6.45-5.69h0c3.56,0,6.49,2.52,6.5,5.64v2.24C81.59,53.34,78.69,55.9,75.13,55.92Z"/><ellipse cx="75.1" cy="49.18" rx="2.96" ry="3.16" transform="translate(-0.2 0.31) rotate(-0.24)"/><ellipse class="cls-5" cx="77.12" cy="46.95" rx="1.11" ry="1.19" transform="translate(-0.19 0.32) rotate(-0.24)"/><ellipse class="cls-6" cx="78.06" cy="48.42" rx="0.35" ry="0.37" transform="translate(-0.2 0.32) rotate(-0.24)"/><path class="cls-7" d="M68.42,85.1l-4.54,0H62.53l-19,.08a.71.71,0,0,1-.63-.34.47.47,0,0,1-.05-.31h0c0-.08,0-.16,0-.24l0-.08A1.46,1.46,0,0,1,43,84a2,2,0,0,1,0-.24s0-.07,0-.1l.18-.65c0-.11.07-.22.1-.34a17.56,17.56,0,0,1,.93-2.28l.12-.24a15.38,15.38,0,0,1,1.32-2.09l.21-.27.12-.14.06-.09c.17-.2.34-.4.52-.59l.32-.33.09-.1.24-.24.25-.22,0,0a12.78,12.78,0,0,1,2.16-1.59l.41-.23.17-.1.2-.1.55-.25.19-.09.27-.11a5,5,0,0,1,.5-.18c.21-.08.42-.14.63-.21l.58-.14.18,0,.2-.05h0l.31-.06c.22,0,.44-.07.66-.09l.28,0c.13,0,.26,0,.4,0h.25l.43,0h.68l.39,0a2.66,2.66,0,0,1,.28,0l.67.08.3.06h0l.2,0,.18,0,.58.15.54.16.09,0,.5.18.28.11.19.08.55.26.2.1.17.09.42.23a12.93,12.93,0,0,1,2.06,1.48l.14.12.25.22.24.24c.06,0,.11.11.17.17s.16.17.25.25l.52.59.18.23a2.47,2.47,0,0,1,.21.27,14.38,14.38,0,0,1,1.34,2.07c0,.08.09.16.13.25s.13.26.19.4h0a14.59,14.59,0,0,1,.75,1.87c0,.11.07.22.11.34s.14.49.2.74h0l.06.23c0,.07,0,.14,0,.2s0,.22.07.32h0C69.17,84.79,68.84,85.1,68.42,85.1Z"/><path class="cls-8" d="M63.89,84.88a1.93,1.93,0,0,1,0,.24H62.53l-14.17.05a1.79,1.79,0,0,1,0-.24,2.91,2.91,0,0,1,.3-1.25,3.78,3.78,0,0,1,.52-.78c1.27-1.48,3.9-2.51,6.94-2.52s5.68,1,7,2.47a3.32,3.32,0,0,1,.55.83A2.77,2.77,0,0,1,63.89,84.88Z"/><path class="cls-1" d="M68.42,85.1l-4.54,0H62.53l-19,.08a.71.71,0,0,1-.63-.34V83.69h26l.06.23c0,.07,0,.14,0,.2s0,.22.07.32h0C69.17,84.79,68.84,85.1,68.42,85.1Z"/><path class="cls-1" d="M65,76.67H46.94l.09-.1.24-.24.25-.22,0,0a12.78,12.78,0,0,1,2.16-1.59l.41-.23.17-.1.2-.1.55-.25.19-.09.27-.11a5,5,0,0,1,.5-.18c.21-.08.42-.14.63-.21l.58-.14.18,0,.2-.05h0l.31-.06c.22,0,.44-.07.66-.09l.28,0c.13,0,.26,0,.4,0h.25l.43,0h.68l.39,0a2.66,2.66,0,0,1,.28,0l.67.08.3.06h0l.2,0,.18,0,.58.15.54.16.09,0,.5.18.28.11.19.08.55.26.2.1.17.09.42.23a12.93,12.93,0,0,1,2.06,1.48l.14.12.25.22.24.24C64.93,76.55,65,76.61,65,76.67Z"/><path class="cls-9" d="M48.13,35.51c-1.46-.42-2.82-.86-4.15-1.3s-2.62-.84-3.9-1.23-2.52-.79-3.78-1.22a17.14,17.14,0,0,0-3.85-.92,19.7,19.7,0,0,0-7.94.76,24.64,24.64,0,0,0-7.36,3.9l-.28-.29a22.74,22.74,0,0,1,6.88-5.49A21.33,21.33,0,0,1,28,28.16a21.14,21.14,0,0,1,4.56-.55,29.87,29.87,0,0,1,4.63.24,14.59,14.59,0,0,1,4.39,1.38,18.63,18.63,0,0,1,3.8,2.5,13.46,13.46,0,0,1,3,3.47Z"/><path class="cls-10" d="M63.31,35.2a13.66,13.66,0,0,1,3-3.47,19,19,0,0,1,3.81-2.5,14.59,14.59,0,0,1,4.39-1.38,29.81,29.81,0,0,1,4.62-.24,21.23,21.23,0,0,1,4.57.55A21.79,21.79,0,0,1,88,29.72a22.74,22.74,0,0,1,6.88,5.49l-.28.29a24.76,24.76,0,0,0-7.36-3.9,19.71,19.71,0,0,0-7.94-.76,17.1,17.1,0,0,0-3.86.92c-1.25.43-2.49.84-3.77,1.22s-2.58.81-3.91,1.23-2.68.88-4.14,1.3Z"/><path class="cls-11" d="M14.85,47.34a3.05,3.05,0,0,1-3.17,2.92,3.05,3.05,0,0,1-3.16-2.92c0-1.62,3.15-5.55,3.16-5.55S14.85,45.72,14.85,47.34Z"/><path class="cls-12" d="M101,61.92a3.18,3.18,0,0,1-6.33,0c0-1.62,3.15-5.56,3.16-5.56S101,60.3,101,61.92Z"/></g></g></svg>