<svg xmlns="http://www.w3.org/2000/svg" xmlns:xlink="http://www.w3.org/1999/xlink" viewBox="0 0 107.72 107.72"><defs><style>.cls-1{fill:url(#linear-gradient);}.cls-2,.cls-5,.cls-6{fill:#fff;}.cls-3{fill:#f2eded;}.cls-4{fill:#ac4d17;}.cls-5{opacity:0.55;}.cls-6{opacity:0.9;}.cls-7{fill:#5b0013;}.cls-8{fill:#f2f2f2;}.cls-9{fill:#e0003d;}.cls-10{fill:url(#linear-gradient-2);}.cls-11{fill:url(#linear-gradient-3);}</style><linearGradient id="linear-gradient" x1="53.86" x2="53.86" y2="107.72" gradientUnits="userSpaceOnUse"><stop offset="0" stop-color="#f5515f"/><stop offset="1" stop-color="#a1051d"/></linearGradient><linearGradient id="linear-gradient-2" x1="14.46" y1="35.06" x2="52.63" y2="35.06" gradientUnits="userSpaceOnUse"><stop offset="0" stop-color="#fad961"/><stop offset="0.86" stop-color="#f76b1c"/></linearGradient><linearGradient id="linear-gradient-3" x1="73.16" y1="25.36" x2="73.16" y2="44.78" gradientUnits="userSpaceOnUse"><stop offset="0" stop-color="#fad961"/><stop offset="0.85" stop-color="#f76b1c"/></linearGradient></defs><title>enojo</title><g id="Layer_2" data-name="Layer 2"><g id="Layer_1-2" data-name="Layer 1"><circle class="cls-1" cx="53.86" cy="53.86" r="53.86"/><rect class="cls-2" x="21.69" y="39.36" width="22.94" height="19.61" rx="9.81" ry="9.81" transform="matrix(0, -1, 1, 0, -16.05, 82.26)"/><path class="cls-3" d="M33.19,37.51h0c-5.4,0-9.82,4.7-9.83,10.47v.59c0-5.77,4.43-10.48,9.82-10.47h0c5.4,0,9.8,4.74,9.8,10.5V48C43,42.24,38.58,37.52,33.19,37.51Z"/><path class="cls-4" d="M33.16,55.72h0c-3.57,0-6.48-2.56-6.47-5.67V47.81c0-3.11,2.93-5.66,6.49-5.65h0c3.56,0,6.47,2.56,6.47,5.67v2.24C39.64,53.19,36.72,55.73,33.16,55.72Z"/><ellipse cx="33.17" cy="48.98" rx="3.16" ry="2.96" transform="translate(-15.87 82.07) rotate(-89.91)"/><ellipse class="cls-5" cx="35.21" cy="46.76" rx="1.19" ry="1.11" transform="translate(-11.61 81.9) rotate(-89.91)"/><ellipse class="cls-6" cx="36.13" cy="48.25" rx="0.37" ry="0.35" transform="translate(-12.17 84.3) rotate(-89.91)"/><rect class="cls-2" x="62.86" y="37.98" width="19.61" height="22.94" rx="9.81" ry="9.81"/><path class="cls-3" d="M72.66,37.8h0c-5.39,0-9.8,4.71-9.8,10.48v.59c0-5.76,4.41-10.48,9.8-10.48h0c5.4,0,9.81,4.72,9.81,10.48v-.59C82.47,42.51,78.06,37.8,72.66,37.8Z"/><path class="cls-4" d="M72.66,56h0c-3.56,0-6.47-2.55-6.47-5.66V48.11c0-3.12,2.91-5.67,6.47-5.67h0c3.57,0,6.48,2.55,6.48,5.67v2.24C79.14,53.46,76.23,56,72.66,56Z"/><ellipse cx="72.66" cy="49.27" rx="2.96" ry="3.16"/><ellipse class="cls-5" cx="74.7" cy="47.05" rx="1.11" ry="1.19"/><ellipse class="cls-6" cx="75.62" cy="48.53" rx="0.35" ry="0.37"/><path class="cls-7" d="M64.78,84.11c-.24,2.19-1.2,3.67-2.94,3.26-4.17-1-5.42-2.32-13.3-.07-2.45.7-4-.87-4.83-3.19a14.21,14.21,0,0,1-.4-7c.64-3.24,2.44-5.44,5.16-3.13,6.64,5.64,9.37-4.35,13.29.08a11,11,0,0,1,1.86,3A14.81,14.81,0,0,1,64.78,84.11Z"/><path class="cls-8" d="M63.62,77.13H43.31c.64-3.24,2.44-5.44,5.16-3.13,6.64,5.64,9.37-4.35,13.29.08A11,11,0,0,1,63.62,77.13Z"/><path class="cls-8" d="M51.46,86.56c-.86.19-1.82.43-2.92.74-2.45.7-4-.87-4.83-3.19h1.61a.49.49,0,0,0,0,.12C45.31,85.32,47.88,86.23,51.46,86.56Z"/><path class="cls-8" d="M64.78,84.11c-.24,2.19-1.2,3.67-2.94,3.26-1.37-.31-2.42-.67-3.49-.93,3-.4,5-1.24,5-2.21,0,0,0-.08,0-.12Z"/><path class="cls-8" d="M63.4,84.23c0,1-2.06,1.81-5,2.21a14,14,0,0,0-6.89.12c-3.58-.33-6.15-1.24-6.15-2.33a.49.49,0,0,1,0-.12H63.39S63.4,84.19,63.4,84.23Z"/><path class="cls-9" d="M63.39,84.11H45.32c.25-1.3,4.2-2.33,9-2.33S63.14,82.81,63.39,84.11Z"/><path class="cls-10" d="M15,25.33c3.32,1.2,6.6,2.5,9.88,3.76L29.72,31l4.86,2c1.61.66,3.3,1.17,5,1.73a22,22,0,0,1,4.67,2.21,42.47,42.47,0,0,1,4.25,3c.68.56,1.36,1.14,2,1.76s1.33,1.24,2,2v0a.41.41,0,0,1,0,.58.39.39,0,0,1-.16.1c-.25.08-.5.13-.75.19a6.86,6.86,0,0,1-.75.12,12.57,12.57,0,0,1-1.49.1,20.59,20.59,0,0,1-2.85-.16,28,28,0,0,1-5.33-1.23,19.5,19.5,0,0,1-4.78-2.35c-1.49-1-2.92-2.06-4.42-3l-2.24-1.42-2.22-1.44-2.19-1.48-2.18-1.51c-2.89-2-5.76-4.09-8.54-6.29a.36.36,0,0,1-.06-.51.36.36,0,0,1,.4-.11Z"/><path class="cls-11" d="M92.13,26c-2.79,2.19-5.67,4.23-8.56,6.27l-2.18,1.5L79.2,35.24,77,36.68l-2.24,1.41c-1.5.92-2.94,2-4.42,3a19.68,19.68,0,0,1-4.79,2.33,27.21,27.21,0,0,1-5.33,1.22,20.65,20.65,0,0,1-2.86.16c-.49,0-1,0-1.48-.1l-.75-.12c-.25-.07-.5-.11-.75-.2l-.16-.69c.71-.72,1.36-1.34,2-2s1.35-1.19,2-1.75a42.36,42.36,0,0,1,4.25-3,22.74,22.74,0,0,1,4.68-2.2c1.65-.56,3.34-1.06,4.95-1.72L77,31l4.9-1.92c3.29-1.25,6.56-2.54,9.89-3.74Z"/></g></g></svg>