<svg xmlns="http://www.w3.org/2000/svg" viewBox="0 0 41.93 49.5"><defs><style>.cls-1{fill:#fff;}.cls-1,.cls-2{stroke:#fff;stroke-miterlimit:10;}.cls-2{fill:none;stroke-linecap:round;stroke-width:2px;}</style></defs><title>adelante</title><g id="Layer_2" data-name="Layer 2"><g id="Layer_1-2" data-name="Layer 1"><path class="cls-1" d="M40.79,24.42a.77.77,0,0,1-.4-.1L2.86,1.11A.29.29,0,0,1,2.69.86.29.29,0,0,1,2.86.6a.89.89,0,0,1,.81,0L41.2,23.82a.3.3,0,0,1,.17.25.31.31,0,0,1-.17.25A.78.78,0,0,1,40.79,24.42Z"/><path class="cls-1" d="M1.42,48.77a.8.8,0,0,1-.41-.1.27.27,0,0,1,0-.5L36.24,26.38a.85.85,0,0,1,.82,0,.27.27,0,0,1,0,.5L1.83,48.67A.78.78,0,0,1,1.42,48.77Z"/><path class="cls-1" d="M37.92,26.2a.78.78,0,0,1-.41-.1.27.27,0,0,1,0-.5l1.61-1a.83.83,0,0,1,.81,0,.27.27,0,0,1,0,.5l-1.61,1A.77.77,0,0,1,37.92,26.2Z"/><path class="cls-1" d="M1.08,47.35C.76,47.35.5,47.19.5,47V4.42c0-.2.26-.36.58-.36s.57.16.57.36V47C1.65,47.19,1.39,47.35,1.08,47.35Z"/><path class="cls-1" d="M1.08,3.7C.76,3.7.5,3.54.5,3.35V.93c0-.2.26-.36.58-.36s.57.16.57.36V3.35C1.65,3.54,1.39,3.7,1.08,3.7Z"/><line class="cls-2" x1="40.93" y1="1.5" x2="40.93" y2="48.5"/></g></g></svg>