<svg xmlns="http://www.w3.org/2000/svg" viewBox="0 0 41.93 49.5"><defs><style>.cls-1{fill:#fff;}.cls-1,.cls-2{stroke:#fff;stroke-miterlimit:10;}.cls-2{fill:none;stroke-linecap:round;stroke-width:2px;}</style></defs><title>atras</title><g id="Layer_2" data-name="Layer 2"><g id="Layer_1-2" data-name="Layer 1"><path class="cls-1" d="M1.14,25.08a.78.78,0,0,1,.41.1L39.08,48.39a.28.28,0,0,1,0,.51.91.91,0,0,1-.82,0L.73,25.68a.29.29,0,0,1-.16-.25.3.3,0,0,1,.16-.25A.8.8,0,0,1,1.14,25.08Z"/><path class="cls-1" d="M40.51.73a.78.78,0,0,1,.41.1.27.27,0,0,1,0,.5L5.69,23.12a.83.83,0,0,1-.81,0,.27.27,0,0,1,0-.5L40.11.83A.77.77,0,0,1,40.51.73Z"/><path class="cls-1" d="M4,23.3a.8.8,0,0,1,.41.1.27.27,0,0,1,0,.5l-1.62,1a.83.83,0,0,1-.81,0,.27.27,0,0,1,0-.5l1.61-1A.78.78,0,0,1,4,23.3Z"/><path class="cls-1" d="M40.86,2.15c.32,0,.57.16.57.36V45.08c0,.2-.25.36-.57.36s-.58-.16-.58-.36V2.51C40.28,2.31,40.54,2.15,40.86,2.15Z"/><path class="cls-1" d="M40.86,45.8c.32,0,.57.16.57.35v2.42c0,.2-.25.36-.57.36s-.58-.16-.58-.36V46.15C40.28,46,40.54,45.8,40.86,45.8Z"/><line class="cls-2" x1="1" y1="48" x2="1" y2="1"/></g></g></svg>