<svg xmlns="http://www.w3.org/2000/svg" viewBox="0 0 35.23 41.61"><defs><style>.cls-1{fill:#fff;}</style></defs><title>icono play</title><g id="Layer_2" data-name="Layer 2"><g id="Layer_1-2" data-name="Layer 1"><path class="cls-1" d="M34.73,20.62a.68.68,0,0,1-.35-.09L2,.52A.24.24,0,0,1,1.89.31.25.25,0,0,1,2,.09a.73.73,0,0,1,.7,0l32.35,20a.25.25,0,0,1,.15.21.27.27,0,0,1-.15.22A.68.68,0,0,1,34.73,20.62Z"/><path class="cls-1" d="M.79,41.61a.7.7,0,0,1-.35-.09.24.24,0,0,1,0-.44L30.81,22.31a.73.73,0,0,1,.7,0,.23.23,0,0,1,0,.43L1.14,41.52A.65.65,0,0,1,.79,41.61Z"/><path class="cls-1" d="M32.25,22.15a.68.68,0,0,1-.35-.09.23.23,0,0,1,0-.43l1.39-.86a.73.73,0,0,1,.7,0,.23.23,0,0,1,0,.43l-1.39.86A.68.68,0,0,1,32.25,22.15Z"/><path class="cls-1" d="M.5,40.38c-.28,0-.5-.14-.5-.31V3.38c0-.17.22-.31.5-.31s.49.14.49.31V40.07C1,40.24.77,40.38.5,40.38Z"/><path class="cls-1" d="M.5,2.76c-.28,0-.5-.14-.5-.31V.37C0,.2.22.06.5.06S1,.2,1,.37V2.45C1,2.62.77,2.76.5,2.76Z"/></g></g></svg>