<svg xmlns="http://www.w3.org/2000/svg" xmlns:xlink="http://www.w3.org/1999/xlink" viewBox="0 0 74.42 57.76"><defs><style>.cls-1{fill:url(#New_Gradient_Swatch_copy_4);}.cls-2{fill:#fff;stroke:#fff;stroke-miterlimit:10;}</style><linearGradient id="New_Gradient_Swatch_copy_4" x1="-60.35" y1="28.24" x2="-60.35" y2="81.72" gradientTransform="translate(81.72 90.11) rotate(90.18)" gradientUnits="userSpaceOnUse"><stop offset="0" stop-color="#f3dcfb"/><stop offset="1" stop-color="#679fe4"/></linearGradient></defs><title>inicio</title><g id="Layer_2" data-name="Layer 2"><g id="Layer_1-2" data-name="Layer 1"><ellipse class="cls-1" cx="26.94" cy="29.59" rx="26.74" ry="26.93" transform="translate(-2.81 56.36) rotate(-89.68)"/><path class="cls-2" d="M12,56.82a.46.46,0,0,1-.5-.41l.34-37.86a.41.41,0,0,1,.2-.33L41.68.58a.58.58,0,0,1,.57,0L73.7,18a.36.36,0,0,1,.13.57.58.58,0,0,1-.69.11L42,1.41,12.82,18.77l-.33,37.64A.47.47,0,0,1,12,56.82Z"/><path class="cls-2" d="M51.19,57.07a.46.46,0,0,1-.5-.41l.16-18.33c0-3.65-3.67-6.66-8.26-6.7s-8.49,2.95-8.52,6.66L33.9,56.51a.46.46,0,0,1-.5.41l-15.51-.14a.46.46,0,0,1-.5-.42.47.47,0,0,1,.51-.4l15,.13.15-17.81c0-4.16,4.32-7.51,9.54-7.47s9.29,3.42,9.26,7.52l-.17,18.34A.45.45,0,0,1,51.19,57.07Z"/><path class="cls-2" d="M73,57.26l-17.91-.15a.42.42,0,1,1,0-.83l17.4.16.28-30.73a.46.46,0,0,1,.5-.41.46.46,0,0,1,.5.42l-.28,31.14A.45.45,0,0,1,73,57.26Z"/><path class="cls-2" d="M73.25,24.35a.46.46,0,0,1-.5-.42l0-3.5a.47.47,0,0,1,.51-.41.45.45,0,0,1,.49.42l0,3.5A.46.46,0,0,1,73.25,24.35Z"/><path class="cls-2" d="M16.29,56.78l-2.41,0a.42.42,0,1,1,0-.83l2.41,0a.47.47,0,0,1,.49.42A.46.46,0,0,1,16.29,56.78Z"/></g></g></svg>