<svg xmlns="http://www.w3.org/2000/svg" xmlns:xlink="http://www.w3.org/1999/xlink" viewBox="0 0 107.71 107.72"><defs><style>.cls-1{fill:url(#linear-gradient);}.cls-2,.cls-5,.cls-6{fill:#fff;}.cls-3{fill:#f2eded;}.cls-4{fill:#ac4d17;}.cls-5{opacity:0.55;}.cls-6{opacity:0.9;}.cls-7{fill:url(#linear-gradient-2);}.cls-8{fill:url(#linear-gradient-3);}.cls-9{fill:#276174;}.cls-10{fill:#5b0013;}.cls-11{fill:#e0003d;}</style><linearGradient id="linear-gradient" x1="53.86" y1="107.72" x2="53.86" gradientUnits="userSpaceOnUse"><stop offset="0" stop-color="#276174"/><stop offset="1" stop-color="#63fd88"/></linearGradient><linearGradient id="linear-gradient-2" x1="36.06" y1="38.68" x2="24.68" y2="29.6" gradientUnits="userSpaceOnUse"><stop offset="0.23" stop-color="#276174"/><stop offset="1" stop-color="#33c58e"/></linearGradient><linearGradient id="linear-gradient-3" x1="69.88" y1="39.28" x2="80.17" y2="28.99" xlink:href="#linear-gradient-2"/></defs><title>estrés</title><g id="Layer_2" data-name="Layer 2"><g id="Layer_1-2" data-name="Layer 1"><circle class="cls-1" cx="53.86" cy="53.86" r="53.86"/><rect class="cls-2" x="24.17" y="37.77" width="19.61" height="22.94" rx="9.81" ry="9.81" transform="translate(-0.13 0.09) rotate(-0.15)"/><path class="cls-3" d="M34,37.58h0c-5.39,0-9.79,4.74-9.78,10.51v.59c0-5.76,4.39-10.49,9.78-10.5h0c5.4,0,9.82,4.69,9.84,10.45V48C43.77,42.27,39.34,37.57,34,37.58Z"/><path class="cls-4" d="M34,55.79h0c-3.56,0-6.49-2.53-6.49-5.64V47.91c0-3.12,2.9-5.67,6.46-5.68h0c3.56,0,6.49,2.53,6.49,5.64v2.25C40.47,53.23,37.56,55.79,34,55.79Z"/><ellipse cx="33.98" cy="49.05" rx="2.96" ry="3.16" transform="translate(-0.13 0.09) rotate(-0.15)"/><ellipse class="cls-5" cx="36.01" cy="46.83" rx="1.11" ry="1.19" transform="translate(-0.12 0.09) rotate(-0.15)"/><ellipse class="cls-6" cx="36.94" cy="48.31" rx="0.35" ry="0.37" transform="translate(-0.12 0.1) rotate(-0.15)"/><rect class="cls-2" x="63.67" y="37.89" width="19.61" height="22.94" rx="9.81" ry="9.81" transform="translate(-0.2 0.3) rotate(-0.24)"/><path class="cls-3" d="M73.43,37.7h0c-5.39,0-9.79,4.76-9.76,10.53v.59c0-5.76,4.37-10.5,9.76-10.52h0c5.4,0,9.83,4.68,9.85,10.44v-.59C83.26,42.38,78.82,37.68,73.43,37.7Z"/><path class="cls-4" d="M73.51,55.92h0c-3.57,0-6.49-2.52-6.5-5.64V48c0-3.11,2.89-5.67,6.45-5.69h0c3.56,0,6.49,2.52,6.5,5.64v2.24C80,53.34,77.07,55.9,73.51,55.92Z"/><ellipse cx="73.48" cy="49.18" rx="2.96" ry="3.16" transform="translate(-0.2 0.3) rotate(-0.24)"/><ellipse class="cls-5" cx="75.5" cy="46.95" rx="1.11" ry="1.19" transform="translate(-0.19 0.31) rotate(-0.24)"/><ellipse class="cls-6" cx="76.44" cy="48.42" rx="0.35" ry="0.37" transform="translate(-0.2 0.32) rotate(-0.24)"/><path class="cls-7" d="M42.08,28c-1.3.26-2.52.46-3.69.66s-2.3.42-3.38.66L31.84,30a10.65,10.65,0,0,0-3,1.1c-.23.15-.48.27-.7.43l-.67.48a13,13,0,0,0-1.24,1.11,8.36,8.36,0,0,0-.58.61c-.18.22-.37.43-.55.66a15.7,15.7,0,0,0-1,1.43,24.68,24.68,0,0,0-2.76,6.67.2.2,0,0,1-.25.14.2.2,0,0,1-.15-.2,21.83,21.83,0,0,1,1.34-7.5,14.78,14.78,0,0,1,4.7-6.5,18.11,18.11,0,0,1,3.56-2.21,10.4,10.4,0,0,1,4-.93,13.53,13.53,0,0,1,4,.52,10.12,10.12,0,0,1,3.61,1.8.22.22,0,0,1,0,.31.26.26,0,0,1-.13.08Z"/><path class="cls-8" d="M62.55,29a10.26,10.26,0,0,1,3.39-2.2,13.14,13.14,0,0,1,3.94-1,10.16,10.16,0,0,1,4.12.46,18.26,18.26,0,0,1,3.78,1.81A14.63,14.63,0,0,1,83.18,34a21.8,21.8,0,0,1,2.17,7.31.19.19,0,0,1-.18.22.2.2,0,0,1-.21-.12,24.64,24.64,0,0,0-3.49-6.32,16,16,0,0,0-1.13-1.32l-.62-.58a5.57,5.57,0,0,0-.65-.55,13.92,13.92,0,0,0-1.35-1L77,31.3c-.24-.13-.5-.23-.74-.34a10.44,10.44,0,0,0-3.15-.76l-3.23-.32c-1.1-.12-2.24-.21-3.43-.28s-2.41-.13-3.74-.24h0a.21.21,0,0,1-.2-.23A.3.3,0,0,1,62.55,29Z"/><path class="cls-9" d="M91.11,37.86c-.11-.63-.22-1.25-.32-1.88l-.28-1.88,0-.27.31-.22,1.43-1c.48-.34,1-.66,1.44-1s1-.66,1.43-1a12.71,12.71,0,0,1,1.45-1l-.44,1.49a9.27,9.27,0,0,1-.45-1.07c-.13-.36-.26-.73-.36-1.11s-.19-.77-.26-1.17a7,7,0,0,1-.13-1.23l.19-.1a7.43,7.43,0,0,1,.93.83,9.37,9.37,0,0,1,.78.89c.25.31.48.63.7.95a10,10,0,0,1,.6,1l.5.93-.94.56a14.3,14.3,0,0,1-1.58.75q-.81.34-1.59.72l-1.58.75-1.59.72.27-.49L91.46,36c0,.63-.09,1.27-.14,1.9Z"/><path class="cls-9" d="M18,34.88c-.05-.63-.1-1.27-.14-1.9l-.11-1.9.27.49-1.59-.72-1.58-.75c-.53-.25-1.06-.49-1.6-.72a14.15,14.15,0,0,1-1.57-.75l-.94-.56.49-.93a10.13,10.13,0,0,1,.61-1c.22-.32.44-.64.69-.95s.51-.6.79-.89a8.32,8.32,0,0,1,.93-.83l.19.1a9.65,9.65,0,0,1-.13,1.23A11.06,11.06,0,0,1,14,26c-.1.38-.22.75-.35,1.11a11.44,11.44,0,0,1-.45,1.07l-.45-1.49a12.71,12.71,0,0,1,1.45,1c.47.35.95.68,1.43,1s1,.64,1.45,1l1.43,1,.31.22,0,.27L18.51,33c-.1.63-.2,1.25-.31,1.88Z"/><path class="cls-9" d="M27.36,19.4c-.08-.69-.13-1.37-.18-2.06l.17.3q-.86-.37-1.71-.78l-.85-.38a6.59,6.59,0,0,1-.85-.4l-.57-.35.3-.57a6.06,6.06,0,0,1,.71-1.05c.14-.16.29-.32.45-.47a3.26,3.26,0,0,1,.53-.44l.12.06a5.16,5.16,0,0,1,0,.69c0,.22-.07.43-.12.64a6.76,6.76,0,0,1-.4,1.2l-.28-.92a6.58,6.58,0,0,1,.77.53,8.12,8.12,0,0,0,.75.56l1.52,1.1.19.15,0,.16c-.11.68-.22,1.36-.36,2Z"/><path class="cls-9" d="M88.25,26.43c-.13-.68-.24-1.36-.36-2l0-.17.19-.14L89.58,23c.25-.18.5-.36.75-.56a7.06,7.06,0,0,1,.77-.54l-.28.93a6.06,6.06,0,0,1-.41-1.2A4.5,4.5,0,0,1,90.3,21a3.14,3.14,0,0,1,0-.69l.12-.06a3.26,3.26,0,0,1,.53.44,4.81,4.81,0,0,1,.44.47,6.11,6.11,0,0,1,.72,1.05l.3.57-.58.35a5.9,5.9,0,0,1-.84.4l-.86.38c-.56.27-1.13.53-1.7.78l.17-.3c-.06.69-.11,1.37-.18,2.06Z"/><path class="cls-10" d="M65.44,79.35v2.47a5.36,5.36,0,0,1-2,4.1A7.77,7.77,0,0,1,60,87.55a9.18,9.18,0,0,1-1.84.19H49.59a9.26,9.26,0,0,1-1.84-.19,7.82,7.82,0,0,1-3.43-1.63,5.36,5.36,0,0,1-2-4.1V79.35a4.83,4.83,0,0,1,.12-1.08c.64-2.76,3.62-4.84,7.2-4.84h8.53c3.59,0,6.57,2.08,7.2,4.84A4.83,4.83,0,0,1,65.44,79.35Z"/><path class="cls-11" d="M60,87.55a9.18,9.18,0,0,1-1.84.19H49.59a9.26,9.26,0,0,1-1.84-.19c.08-2,2.79-3.64,6.11-3.64S59.88,85.53,60,87.55Z"/><path class="cls-2" d="M63.39,85.92A7.77,7.77,0,0,1,60,87.55a9.18,9.18,0,0,1-1.84.19H49.59a9.26,9.26,0,0,1-1.84-.19,7.82,7.82,0,0,1-3.43-1.63Z"/><path class="cls-2" d="M65.32,78.27H42.39c.64-2.76,3.62-4.84,7.2-4.84h8.53C61.71,73.43,64.69,75.51,65.32,78.27Z"/></g></g></svg>