<svg xmlns="http://www.w3.org/2000/svg" xmlns:xlink="http://www.w3.org/1999/xlink" viewBox="0 0 107.72 107.72"><defs><style>.cls-1{fill:url(#New_Gradient_Swatch_copy_2);}.cls-2,.cls-5,.cls-6{fill:#fff;}.cls-3{fill:#f2eded;}.cls-4{fill:#ac4d17;}.cls-5{opacity:0.55;}.cls-6{opacity:0.9;}.cls-7{fill:url(#New_Gradient_Swatch_copy_3);}.cls-8{fill:url(#New_Gradient_Swatch_copy_3-2);}.cls-9{fill:#5b0013;}.cls-10{fill:#e0003d;}</style><linearGradient id="New_Gradient_Swatch_copy_2" x1="53.86" y1="107.72" x2="53.86" gradientUnits="userSpaceOnUse"><stop offset="0" stop-color="#8e6dff"/><stop offset="1" stop-color="#19e7de"/></linearGradient><linearGradient id="New_Gradient_Swatch_copy_3" x1="33.07" y1="22" x2="33.07" y2="36.56" gradientUnits="userSpaceOnUse"><stop offset="0" stop-color="#333e97"/><stop offset="1" stop-color="#009ef6"/></linearGradient><linearGradient id="New_Gradient_Swatch_copy_3-2" x1="73.56" y1="21.73" x2="73.56" y2="36.29" xlink:href="#New_Gradient_Swatch_copy_3"/></defs><title>tristeza</title><g id="Layer_2" data-name="Layer 2"><g id="Layer_1-2" data-name="Layer 1"><circle class="cls-1" cx="53.86" cy="53.86" r="53.86"/><rect class="cls-2" x="24.17" y="37.77" width="19.61" height="22.94" rx="9.81" ry="9.81" transform="translate(-0.13 0.09) rotate(-0.15)"/><path class="cls-3" d="M34,37.58h0c-5.39,0-9.79,4.74-9.78,10.51v.59c0-5.76,4.39-10.49,9.78-10.5h0c5.4,0,9.82,4.69,9.84,10.45V48C43.77,42.27,39.34,37.57,34,37.58Z"/><path class="cls-4" d="M34,55.79h0c-3.56,0-6.49-2.53-6.49-5.64V47.91c0-3.12,2.9-5.67,6.46-5.68h0c3.56,0,6.49,2.53,6.49,5.64v2.25C40.47,53.23,37.56,55.79,34,55.79Z"/><ellipse cx="33.98" cy="49.05" rx="2.96" ry="3.16" transform="translate(-0.13 0.09) rotate(-0.15)"/><ellipse class="cls-5" cx="36.01" cy="46.83" rx="1.11" ry="1.19" transform="translate(-0.12 0.09) rotate(-0.15)"/><ellipse class="cls-6" cx="36.94" cy="48.31" rx="0.35" ry="0.37" transform="translate(-0.12 0.1) rotate(-0.15)"/><rect class="cls-2" x="63.67" y="37.89" width="19.61" height="22.94" rx="9.81" ry="9.81" transform="translate(-0.2 0.3) rotate(-0.24)"/><path class="cls-3" d="M73.43,37.7h0c-5.39,0-9.79,4.76-9.76,10.53v.59c0-5.76,4.37-10.5,9.76-10.52h0c5.4,0,9.83,4.68,9.85,10.44v-.59C83.26,42.38,78.82,37.68,73.43,37.7Z"/><path class="cls-4" d="M73.51,55.92h0c-3.57,0-6.49-2.52-6.5-5.64V48c0-3.11,2.89-5.67,6.45-5.69h0c3.56,0,6.49,2.52,6.5,5.64v2.24C80,53.34,77.07,55.9,73.51,55.92Z"/><ellipse cx="73.48" cy="49.18" rx="2.96" ry="3.16" transform="translate(-0.2 0.3) rotate(-0.24)"/><ellipse class="cls-5" cx="75.5" cy="46.95" rx="1.11" ry="1.19" transform="translate(-0.19 0.31) rotate(-0.24)"/><ellipse class="cls-6" cx="76.44" cy="48.42" rx="0.35" ry="0.37" transform="translate(-0.2 0.32) rotate(-0.24)"/><path class="cls-7" d="M45.54,24.1a10.31,10.31,0,0,1-.84,3.95,13.61,13.61,0,0,1-2.11,3.47,10.48,10.48,0,0,1-3.24,2.58,18.42,18.42,0,0,1-4,1.4,14.67,14.67,0,0,1-8-.38,22.19,22.19,0,0,1-6.71-3.63.21.21,0,0,1,0-.29.22.22,0,0,1,.24-.06,24.67,24.67,0,0,0,6.94,2,14.23,14.23,0,0,0,1.73.13l.85,0a6,6,0,0,0,.84-.08,12.47,12.47,0,0,0,1.64-.27l.8-.22c.26-.08.51-.19.76-.28a10.39,10.39,0,0,0,2.76-1.69l2.52-2.06c.86-.69,1.72-1.44,2.62-2.22s1.8-1.62,2.82-2.48h0a.22.22,0,0,1,.31,0A.3.3,0,0,1,45.54,24.1Z"/><path class="cls-8" d="M61.47,23.68c1,.86,1.93,1.69,2.82,2.48s1.76,1.53,2.62,2.22l2.52,2.06a10.5,10.5,0,0,0,2.75,1.69c.26.09.51.2.77.28l.79.22a12.75,12.75,0,0,0,1.64.27,6,6,0,0,0,.84.08l.86,0a14.54,14.54,0,0,0,1.73-.13,24.51,24.51,0,0,0,6.93-2,.21.21,0,0,1,.21.35,22.14,22.14,0,0,1-6.7,3.63,14.67,14.67,0,0,1-8,.38,18,18,0,0,1-3.95-1.4,10.36,10.36,0,0,1-3.24-2.58,13.33,13.33,0,0,1-2.11-3.47,10.14,10.14,0,0,1-.85-4,.23.23,0,0,1,.23-.21.24.24,0,0,1,.14.05Z"/><path class="cls-9" d="M66.26,85.37l-4.54,0H60.37l-19,.08a.71.71,0,0,1-.63-.34.47.47,0,0,1,0-.31h0c0-.08,0-.16,0-.24l0-.08a1.46,1.46,0,0,1,0-.2,2,2,0,0,1,.05-.24s0-.07,0-.1l.18-.65c0-.11.07-.22.1-.34a17.56,17.56,0,0,1,.93-2.28l.12-.24a15.38,15.38,0,0,1,1.32-2.09l.21-.27.12-.14.06-.09c.17-.2.34-.4.52-.59l.41-.43.24-.24.25-.22,0,0a12.78,12.78,0,0,1,2.16-1.59l.41-.23.17-.1.2-.1.55-.26.19-.08.27-.11a5,5,0,0,1,.5-.18l.63-.21.59-.14.17,0,.2,0h0l.31-.06c.22,0,.44-.07.66-.09l.28,0c.13,0,.26,0,.4,0h.25l.43,0h.68l.39,0a2.66,2.66,0,0,1,.28,0l.67.08.3.06h0l.19,0,.18,0,.58.15.54.16.09,0,.5.18.28.11.19.08.55.26.2.1.17.09.42.23a12.93,12.93,0,0,1,2.06,1.48l.14.12.25.22.24.24.42.42.52.59.18.23a2.47,2.47,0,0,1,.21.27,14.38,14.38,0,0,1,1.34,2.07c0,.08.09.16.13.25s.13.26.19.4h0a14.59,14.59,0,0,1,.75,1.87c0,.11.07.22.11.34s.14.49.2.74h0l.06.23c0,.07,0,.14,0,.2s0,.22.07.32h0C67,85.06,66.68,85.37,66.26,85.37Z"/><path class="cls-10" d="M61.73,85.15a1.93,1.93,0,0,1,0,.24H60.37l-14.17,0a1.85,1.85,0,0,1,0-.24A2.76,2.76,0,0,1,46.48,84a3.78,3.78,0,0,1,.52-.78c1.27-1.48,3.9-2.51,6.94-2.52s5.68,1,7,2.47a3.32,3.32,0,0,1,.55.83A2.63,2.63,0,0,1,61.73,85.15Z"/><path class="cls-2" d="M66.26,85.37l-4.54,0H60.37l-19,.08a.71.71,0,0,1-.63-.34V84h26l.06.23c0,.07,0,.14,0,.2s0,.22.07.32h0C67,85.06,66.68,85.37,66.26,85.37Z"/></g></g></svg>