<svg xmlns="http://www.w3.org/2000/svg" xmlns:xlink="http://www.w3.org/1999/xlink" viewBox="0 0 768 353"><defs><style>.cls-1{opacity:0.76;fill:url(#linear-gradient);}.cls-2{opacity:0.82;fill:url(#linear-gradient-2);}.cls-3{opacity:0.69;fill:url(#New_Gradient_Swatch_copy_4);}</style><linearGradient id="linear-gradient" x1="149.52" y1="-149.52" x2="621.5" y2="322.46" gradientUnits="userSpaceOnUse"><stop offset="0" stop-color="#eddffc"/><stop offset="1" stop-color="#ce9ff2"/></linearGradient><linearGradient id="linear-gradient-2" x1="608.95" y1="-159.05" x2="106.74" y2="343.16" gradientUnits="userSpaceOnUse"><stop offset="0" stop-color="#f9c1eb"/><stop offset="1" stop-color="#a991d3"/></linearGradient><linearGradient id="New_Gradient_Swatch_copy_4" x1="768" y1="103.06" x2="0" y2="103.06" gradientUnits="userSpaceOnUse"><stop offset="0" stop-color="#f3dcfb"/><stop offset="1" stop-color="#679fe4"/></linearGradient></defs><title>nubes</title><g id="Layer_2" data-name="Layer 2"><g id="Layer_1-2" data-name="Layer 1"><path class="cls-1" d="M768,0V149.39c0,42.19-35.94,68.42-64.7,47.31-2.17-1.6-4.39-3.16-6.67-4.66a159.82,159.82,0,0,0-24.88-13.66A136.65,136.65,0,0,0,625.18,167c-41.72-2.56-82.39,14.41-122.48,39-30.62,18.8-60.9,42.06-91.07,64.47C337,326,263,376.39,186.49,341.47c-62.23-28.39-108.77-105.24-135.31-160-7.22-14.89-13-28.16-17.13-38.37-4.6-11.26-7.3-18.82-8-20.76A542.59,542.59,0,0,1,0,8.85V0Z"/><path class="cls-2" d="M768,0l-.12,1s0,.07,0,.11a1.07,1.07,0,0,1,0,.25c-.25,2.06-.52,4.19-.83,6.38a424.7,424.7,0,0,1-26,99.16A524.94,524.94,0,0,1,695.73,192c-27.39,41.72-66.4,87-115,106.4-57.55,23-113.63,3.69-169.66-28-102.35-57.79-204.5-156.79-315-114.58a176.67,176.67,0,0,0-45,25.55c-23.73,18.3-40.59,39.8-51.12,55V0Z"/><path class="cls-3" d="M768,0l-.17.25L767,1.49,719.5,72.22c-33.91,44.4-65.9,74.41-95.14,94.55-39.28,27-73.59,36.29-100.86,38.68A174.84,174.84,0,0,1,502,206C394.29,202.15,331.17,97.75,198.5,94.61,133,93.06,76.61,116.8,34,142.74c-12.57,7.66-23.95,15.51-34,23V0Z"/></g></g></svg>