<svg xmlns="http://www.w3.org/2000/svg" viewBox="0 0 70 70"><defs><style>.cls-1{fill:#fff;stroke:#fff;stroke-miterlimit:10;}</style></defs><title>iconocerrar</title><g id="Layer_2" data-name="Layer 2"><g id="Layer_1-2" data-name="Layer 1"><path class="cls-1" d="M67.79,41.23A33.38,33.38,0,1,1,68.36,34a1,1,0,0,1,.71-.25,1.07,1.07,0,0,1,.41.07,34.53,34.53,0,1,0-.59,7.67,1.14,1.14,0,0,1-1.1-.21Z"/><path class="cls-1" d="M52.42,53.21A.56.56,0,0,1,52,53L17.07,18.09a.56.56,0,0,1,0-.79.57.57,0,0,1,.8,0l35,35a.56.56,0,0,1,0,.79A.58.58,0,0,1,52.42,53.21Z"/><path class="cls-1" d="M20.6,50.06a.57.57,0,0,1-.39-1l28.89-29a.56.56,0,1,1,.79.79L21,49.89A.56.56,0,0,1,20.6,50.06Z"/><path class="cls-1" d="M50.73,19.83a.57.57,0,0,1-.39-1l1.57-1.57a.56.56,0,0,1,.79.79l-1.57,1.57A.56.56,0,0,1,50.73,19.83Z"/><path class="cls-1" d="M17.58,53a.56.56,0,0,1-.4-1l1.58-1.57a.56.56,0,1,1,.79.79L18,52.82A.55.55,0,0,1,17.58,53Z"/><path class="cls-1" d="M68.59,40.47h-.11a.58.58,0,0,1-.45-.67,36.47,36.47,0,0,0,.35-4.8.56.56,0,0,1,.56-.55h0a.56.56,0,0,1,.56.56,36,36,0,0,1-.36,5A.57.57,0,0,1,68.59,40.47Z"/></g></g></svg>