<svg xmlns="http://www.w3.org/2000/svg" xmlns:xlink="http://www.w3.org/1999/xlink" viewBox="0 0 145.77 150"><defs><style>.cls-1{fill:url(#New_Gradient_Swatch_copy_10);}.cls-2{font-size:27.52px;font-family:OpenSansCondensed-Bold, Open Sans Condensed;font-weight:700;}.cls-2,.cls-4{fill:#fff;}.cls-3{fill:url(#linear-gradient);}</style><linearGradient id="New_Gradient_Swatch_copy_10" x1="11.39" y1="-3.15" x2="79.06" y2="64.52" gradientUnits="userSpaceOnUse"><stop offset="0" stop-color="#30cfd0"/><stop offset="1" stop-color="#330867"/></linearGradient><linearGradient id="linear-gradient" x1="78.53" y1="147" x2="122.56" y2="70.73" gradientUnits="userSpaceOnUse"><stop offset="0" stop-color="#505cfd"/><stop offset="1" stop-color="#00f2fe"/></linearGradient></defs><title>consejos</title><g id="Layer_2" data-name="Layer 2"><g id="Layer_1-2" data-name="Layer 1"><path class="cls-1" d="M76.38,0H14.07A14.07,14.07,0,0,0,0,14.07V47.29A14.07,14.07,0,0,0,14.07,61.36H60.45V71.82l9.79-10.46h6.14A14.07,14.07,0,0,0,90.45,47.29V14.07A14.07,14.07,0,0,0,76.38,0Z"/><text class="cls-2" transform="translate(34.72 36)">¿?</text><path class="cls-3" d="M69.39,78.18H131.7a14.07,14.07,0,0,1,14.07,14.07v33.22a14.07,14.07,0,0,1-14.07,14.08H85.32V150l-9.79-10.45H69.39a14.07,14.07,0,0,1-14.07-14.08V92.25A14.07,14.07,0,0,1,69.39,78.18Z"/><path class="cls-4" d="M90.89,108.71a2.25,2.25,0,0,1,.56-1.63,2.18,2.18,0,0,1,1.66-.58,2,2,0,0,1,2.23,2.21,2.18,2.18,0,0,1-.59,1.62,2.2,2.2,0,0,1-1.64.58,2,2,0,0,1-2.22-2.2Z"/><path class="cls-4" d="M98.32,108.71a2.25,2.25,0,0,1,.56-1.63,2.19,2.19,0,0,1,1.66-.58,2,2,0,0,1,2.23,2.21,2.17,2.17,0,0,1-.58,1.62,2.23,2.23,0,0,1-1.65.58,2,2,0,0,1-2.22-2.2Z"/><path class="cls-4" d="M105.75,108.71a2.25,2.25,0,0,1,.56-1.63,2.19,2.19,0,0,1,1.66-.58,2,2,0,0,1,2.23,2.21,2.17,2.17,0,0,1-.58,1.62,2.23,2.23,0,0,1-1.65.58,2,2,0,0,1-2.22-2.2Z"/></g></g></svg>