<svg xmlns="http://www.w3.org/2000/svg" viewBox="0 0 57.95 57.72"><defs><style>.cls-1{fill:#363553;stroke:#363553;stroke-miterlimit:10;}</style></defs><title>prechequeo</title><g id="Layer_2" data-name="Layer 2"><g id="Layer_1-2" data-name="Layer 1"><path class="cls-1" d="M55.82,34a27.48,27.48,0,1,1,.46-6,.91.91,0,0,1,.59-.2.88.88,0,0,1,.33.06,28.36,28.36,0,1,0-.48,6.3.73.73,0,0,1-.3.05A.85.85,0,0,1,55.82,34Z"/><path class="cls-1" d="M56.58,33.48h-.12a.6.6,0,0,1-.46-.69,30.17,30.17,0,0,0,.28-3.92.59.59,0,0,1,.59-.58h0a.58.58,0,0,1,.58.59,30.55,30.55,0,0,1-.3,4.14A.6.6,0,0,1,56.58,33.48Z"/><path class="cls-1" d="M19.26,42.62a.54.54,0,0,1-.41-.17l-7.64-7.64A.58.58,0,0,1,12,34l7.23,7.23L45.67,14.8a.59.59,0,0,1,.82,0,.59.59,0,0,1,0,.83L19.67,42.45A.54.54,0,0,1,19.26,42.62Z"/></g></g></svg>