<svg xmlns="http://www.w3.org/2000/svg" viewBox="0 0 29.72 57.92"><defs><style>.cls-1{fill:#fff;stroke:#fff;stroke-miterlimit:10;stroke-width:2px;}</style></defs><title>siguientepaso</title><g id="Layer_2" data-name="Layer 2"><g id="Layer_1-2" data-name="Layer 1"><path class="cls-1" d="M25.49,25.89a.4.4,0,0,1-.29-.12L1.12,1.69a.4.4,0,0,1,.57-.57L25.77,25.2a.41.41,0,0,1-.28.69Z"/><path class="cls-1" d="M1.4,56.92a.41.41,0,0,1-.28-.69L27.71,29.65a.4.4,0,0,1,.57.57L1.69,56.8A.4.4,0,0,1,1.4,56.92Z"/><path class="cls-1" d="M28.32,28.72A.4.4,0,0,1,28,28.6l-1.86-1.86a.4.4,0,1,1,.57-.57L28.6,28a.41.41,0,0,1-.28.69Z"/></g></g></svg>