<svg xmlns="http://www.w3.org/2000/svg" xmlns:xlink="http://www.w3.org/1999/xlink" viewBox="0 0 174 145.08"><defs><style>.cls-1{fill:url(#New_Gradient_Swatch_2);}.cls-2{fill:#91006d;}.cls-3{fill:#7c0663;}.cls-4{fill:#d10549;}.cls-5{fill:#f00b51;}.cls-6{fill:#f2c6a7;}.cls-7{fill:#eab896;}</style><linearGradient id="New_Gradient_Swatch_2" x1="26.89" y1="51.95" x2="141.92" y2="51.95" gradientUnits="userSpaceOnUse"><stop offset="0" stop-color="#f00b51"/><stop offset="1" stop-color="#91006d"/></linearGradient></defs><title>actividadfisica</title><g id="Layer_2" data-name="Layer 2"><g id="Layer_1-2" data-name="Layer 1"><rect class="cls-1" x="26.89" y="35.25" width="115.03" height="33.39" rx="8.34" ry="8.34"/><rect class="cls-2" x="135.61" width="24.49" height="98.7" rx="9.73" ry="9.73"/><rect class="cls-3" x="159.55" y="20.94" width="14.45" height="56.83" rx="7.22" ry="7.22"/><rect class="cls-4" y="20.94" width="14.45" height="56.83" rx="7.22" ry="7.22"/><rect class="cls-5" x="13.9" width="24.49" height="95.73" rx="9.73" ry="9.73"/><rect class="cls-6" x="46.18" y="6.68" width="16.57" height="46.75" rx="6.5" ry="6.5"/><path class="cls-7" d="M56.12,53.8H52.81a7,7,0,0,1-7-7V13.31a7,7,0,0,1,7-7h3.31a7,7,0,0,1,7,7V46.8A7,7,0,0,1,56.12,53.8ZM46.56,13.05v34a6,6,0,0,0,6,6h3.82a6,6,0,0,0,6-6v-34a6,6,0,0,0-6-6H52.56A6,6,0,0,0,46.56,13.05Z"/><rect class="cls-6" x="62.75" y="6.68" width="16.57" height="46.75" rx="6.5" ry="6.5"/><path class="cls-7" d="M72.69,53.8H69.38a7,7,0,0,1-7-7V13.31a7,7,0,0,1,7-7h3.31a7,7,0,0,1,7,7V46.8A7,7,0,0,1,72.69,53.8ZM63.12,13.05v34a6,6,0,0,0,6,6H73a6,6,0,0,0,6-6v-34a6,6,0,0,0-6-6H69.12A6,6,0,0,0,63.12,13.05Z"/><rect class="cls-6" x="79.32" y="6.68" width="16.57" height="46.75" rx="6.5" ry="6.5"/><path class="cls-7" d="M89.26,53.8H86a7,7,0,0,1-7-7V13.31a7,7,0,0,1,7-7h3.31a7,7,0,0,1,7,7V46.8A7,7,0,0,1,89.26,53.8ZM79.69,13.05v34a6,6,0,0,0,6,6h3.83a6,6,0,0,0,6-6v-34a6,6,0,0,0-6-6H85.69A6,6,0,0,0,79.69,13.05Z"/><rect class="cls-6" x="95.89" y="6.68" width="16.57" height="46.75" rx="6.5" ry="6.5"/><path class="cls-7" d="M105.83,53.8h-3.31a7,7,0,0,1-7-7V13.31a7,7,0,0,1,7-7h3.31a7,7,0,0,1,7,7V46.8A7,7,0,0,1,105.83,53.8ZM96.26,13.05v34a6,6,0,0,0,6,6h3.83a6,6,0,0,0,6-6v-34a6,6,0,0,0-6-6h-3.83A6,6,0,0,0,96.26,13.05Z"/><path class="cls-6" d="M111.47,20v15.3l2.76,1.57a5.58,5.58,0,0,1,2.83,4.85V63a5.58,5.58,0,0,1-5.59,5.58l1.13,22.75L123.46,84a10.38,10.38,0,0,0,4.58-8.6v-43S125.19,23.56,111.47,20Z"/><path class="cls-6" d="M111.47,68.64H46.18v3a11.53,11.53,0,0,0,2.15,6.68l6.39,8.88-5.33,51.94a5.4,5.4,0,0,0,5.37,5.94h57.08a5.38,5.38,0,0,0,5.36-5.93l-4.6-46Z"/></g></g></svg>