<svg xmlns="http://www.w3.org/2000/svg" xmlns:xlink="http://www.w3.org/1999/xlink" viewBox="0 0 93.14 145.69"><defs><style>.cls-1{fill:url(#New_Gradient_Swatch_copy);}.cls-2{fill:#e0003d;}.cls-3{fill:gray;}.cls-4{fill:#f2b288;}.cls-5{fill:#b3b3b3;}</style><linearGradient id="New_Gradient_Swatch_copy" x1="-878.84" y1="515.24" x2="-878.84" y2="395.93" gradientTransform="translate(969.62 -281.44) rotate(6.51)" gradientUnits="userSpaceOnUse"><stop offset="0" stop-color="#fad961"/><stop offset="1" stop-color="#f76b1c"/></linearGradient></defs><title>artisticas</title><g id="Layer_2" data-name="Layer 2"><g id="Layer_1-2" data-name="Layer 1"><polygon class="cls-1" points="86.86 29.99 32.81 122.85 32.81 122.86 32.81 122.87 23.72 129.19 2.63 116.92 3.63 106.04 3.55 105.86 3.58 105.81 57.61 12.97 86.86 29.99"/><rect class="cls-2" x="59.97" y="4.22" width="33.84" height="18.52" rx="8.27" ry="8.27" transform="translate(17.22 -36.85) rotate(30.2)"/><rect class="cls-3" x="54.66" y="17.47" width="33.84" height="10.27" transform="translate(21.09 -32.94) rotate(30.2)"/><polygon class="cls-4" points="32.81 122.85 32.81 122.86 32.81 122.87 23.72 129.19 0 145.69 2.63 116.92 3.63 106.04 3.55 105.86 3.53 105.81 3.58 105.81 8.89 105.17 10.98 110.16 16.35 109.51 18.44 114.5 23.8 113.85 25.74 118.47 30.72 117.87 32.81 122.85"/><rect class="cls-5" x="75.59" y="21.1" width="4.47" height="10.31" transform="translate(23.77 -35.59) rotate(30.2)"/><path d="M1.76,145.1l2.06-1.63L.51,141.55l-.4,2.6A1,1,0,0,0,1.76,145.1Z"/></g></g></svg>