<svg xmlns="http://www.w3.org/2000/svg" xmlns:xlink="http://www.w3.org/1999/xlink" viewBox="0 0 110.89 164"><defs><style>.cls-1{fill:#f2c6a7;}.cls-2{fill:url(#New_Gradient_Swatch_copy_9);}.cls-3{fill:url(#New_Gradient_Swatch_copy_9-2);}.cls-4{fill:url(#New_Gradient_Swatch_copy_9-3);}.cls-5{fill:url(#New_Gradient_Swatch_copy_9-4);}.cls-6{fill:url(#New_Gradient_Swatch_copy_9-5);}.cls-7{fill:url(#New_Gradient_Swatch_copy_9-6);}.cls-8{fill:url(#New_Gradient_Swatch_copy_9-7);}.cls-9{fill:url(#New_Gradient_Swatch_copy_9-8);}.cls-10{fill:url(#New_Gradient_Swatch_copy_9-9);}</style><linearGradient id="New_Gradient_Swatch_copy_9" x1="-1245.53" y1="233.51" x2="-1223.42" y2="233.51" gradientTransform="translate(1270.93 113.23) rotate(9.61)" gradientUnits="userSpaceOnUse"><stop offset="0" stop-color="#4facfe"/><stop offset="1" stop-color="#00f2fe"/></linearGradient><linearGradient id="New_Gradient_Swatch_copy_9-2" x1="-518.63" y1="-2412.64" x2="-498.02" y2="-2412.64" gradientTransform="matrix(0.95, 0.23, -0.05, 0.74, 381.11, 2039.91)" xlink:href="#New_Gradient_Swatch_copy_9"/><linearGradient id="New_Gradient_Swatch_copy_9-3" x1="-353.99" y1="-2458.43" x2="-333.4" y2="-2458.43" gradientTransform="matrix(-0.96, 0.2, 0.03, 0.74, -193.02, 2028.01)" xlink:href="#New_Gradient_Swatch_copy_9"/><linearGradient id="New_Gradient_Swatch_copy_9-4" x1="1084.78" y1="235.93" x2="1084.78" y2="187.62" gradientTransform="translate(-1025.52 74.13) rotate(-7.74)" xlink:href="#New_Gradient_Swatch_copy_9"/><linearGradient id="New_Gradient_Swatch_copy_9-5" x1="-5120.55" y1="1991.52" x2="-5120.55" y2="2006.69" gradientTransform="translate(5155.27 2245.44) rotate(44.45)" xlink:href="#New_Gradient_Swatch_copy_9"/><linearGradient id="New_Gradient_Swatch_copy_9-6" x1="-5115.07" y1="2008.16" x2="-5115.07" y2="2018.24" gradientTransform="translate(5155.27 2245.44) rotate(44.45)" xlink:href="#New_Gradient_Swatch_copy_9"/><linearGradient id="New_Gradient_Swatch_copy_9-7" x1="-8422.89" y1="-1442.79" x2="-8422.89" y2="-1431.03" gradientTransform="matrix(0.44, 0.43, -0.42, 0.43, 3169.71, 4323.86)" xlink:href="#New_Gradient_Swatch_copy_9"/><linearGradient id="New_Gradient_Swatch_copy_9-8" x1="-1220.57" y1="215.28" x2="-1220.57" y2="221.06" xlink:href="#New_Gradient_Swatch_copy_9"/><linearGradient id="New_Gradient_Swatch_copy_9-9" x1="1421.78" y1="292.01" x2="1426.52" y2="292.01" gradientTransform="translate(-1369.2 130.88) rotate(-10.34)" xlink:href="#New_Gradient_Swatch_copy_9"/></defs><title>respiracion</title><g id="Layer_2" data-name="Layer 2"><g id="Layer_1-2" data-name="Layer 1"><rect class="cls-1" x="21.2" width="52.96" height="114.58" rx="26.48" ry="26.48"/><ellipse class="cls-1" cx="70.11" cy="91.99" rx="17.42" ry="17"/><ellipse class="cls-1" cx="26.21" cy="91.99" rx="17.42" ry="17"/><path class="cls-2" d="M.89,159.61a.89.89,0,0,1-.82-.53.87.87,0,0,1,.47-1.14c15.42-6.35,27.21-41.66,27.33-42a.9.9,0,0,1,1.12-.56.87.87,0,0,1,.57,1.09,155.61,155.61,0,0,1-8,18.93C14.91,148.6,8.06,156.73,1.23,159.54A.83.83,0,0,1,.89,159.61Z"/><path class="cls-3" d="M9.64,161.06a.9.9,0,0,1-.86-.65.87.87,0,0,1,.63-1.06c13.53-3.51,19.66-29.33,19.72-29.59a.89.89,0,0,1,1.06-.66.87.87,0,0,1,.67,1A77.94,77.94,0,0,1,26,144.05c-4.51,9.67-9.93,15.38-16.09,17A.91.91,0,0,1,9.64,161.06Z"/><path class="cls-4" d="M80,162a.78.78,0,0,1-.26,0c-6.11-1.79-11.32-7.67-15.51-17.48a77.45,77.45,0,0,1-4.43-14.06.86.86,0,0,1,.7-1,.89.89,0,0,1,1,.69c.05.26,5.31,26.26,18.71,30.2a.87.87,0,0,1,.6,1.08A.89.89,0,0,1,80,162Z"/><path class="cls-5" d="M91.09,160.55a1,1,0,0,1-.37-.08c-6.73-3-13.3-11.37-19.54-24.8a154,154,0,0,1-7.33-19.17.86.86,0,0,1,.61-1.07.9.9,0,0,1,1.1.6c.1.36,10.71,36,25.9,42.87a.86.86,0,0,1,.44,1.15A.9.9,0,0,1,91.09,160.55Z"/><path class="cls-6" d="M100.05,97.15l-3.86-6.74-7-3.63L96.12,83l3.73-6.81,3.86,6.74,7,3.63-6.9,3.77ZM92.92,86.74l4.57,2.38L100,93.54l2.44-4.46L107,86.61l-4.57-2.38-2.53-4.42-2.44,4.46Z"/><path class="cls-7" d="M94.07,107.53l-2.57-4.47-4.63-2.42,4.58-2.5,2.48-4.52,2.56,4.47,4.63,2.42L96.54,103Zm-3.5-6.92,2.23,1.16L94,103.92l1.19-2.17,2.2-1.21L95.2,99.38,94,97.23l-1.19,2.18Z"/><path class="cls-8" d="M105.89,101.77l-1.83-3.18-3.29-1.73L104,95.09l1.74-3.2,1.84,3.18,3.29,1.73-3.25,1.76Zm-1.42-4.94.89.47.49.86.47-.86.87-.48-.89-.46-.49-.86-.47.86Z"/><path class="cls-9" d="M30.72,127.52h-.15a.86.86,0,0,1-.72-1l.69-4a.89.89,0,0,1,1.75.29l-.69,4A.89.89,0,0,1,30.72,127.52Z"/><path class="cls-10" d="M85.85,164a.85.85,0,0,1-.31-.06l-3.23-1.18a.87.87,0,0,1-.52-1.12.89.89,0,0,1,1.15-.5l3.23,1.18a.87.87,0,0,1,.52,1.12A.9.9,0,0,1,85.85,164Z"/></g></g></svg>